<svg id="图层_1" data-name="图层 1" xmlns="http://www.w3.org/2000/svg" viewBox="0 0 641.37 453.52"><defs><style>.cls-1{fill:#fff;}.cls-2{fill:#d9d9d9;}</style></defs><g id="背景填充"><polygon points="352.62 233.19 352.14 240.42 362.36 241.04 361.94 230.09 352.62 233.19"/><polygon points="366.46 228.59 366.26 240.03 393.33 234.75 396.79 226.76 366.46 228.59"/></g><path d="M-65.77,27.55c0,1.12,0,2.24,0,3.36V475.85c0,1,0,2.06,0,3.09a9.71,9.71,0,0,0,.33,1.54,12.22,12.22,0,0,0,1.55.26c1,.05,1.9,0,2.85,0H571c1.36,0,2.73-.14,4.1-.22,0,.17.07.41,0,.5s-.33,0-.5,0H-66.28V29.88c0-.78,0-1.55,0-2.33Z" transform="translate(66.28 -27.55)"/><path class="cls-1" d="M179.12,275.4,150.4,335.46m121.15-23.53,112.7,15.49M358.2,250m-76.09,10.21a16.14,16.14,0,0,0-1.28-10.06,4.41,4.41,0,0,0-4.18-2.54,17.09,17.09,0,0,0-7.33,1.25,48.49,48.49,0,0,0-6.46,3.2c-2.66,1.58-5.24,3.31-7.77,5.1a56.19,56.19,0,0,1-25.58,9.64,85,85,0,0,1-22.14,0c-1.88-.24-3.77-.4-5.65-.6-.43,0-.86-.07-1.29-.15a5.77,5.77,0,0,1-5-4.21,77.33,77.33,0,0,1-4-19.66c-.05-.86-.13-1.71-.19-2.51-4.35-1.66-8.63-3.2-12.84-4.91a87.72,87.72,0,0,1-12.36-6.41,108.8,108.8,0,0,1-11.23-7.82,114.27,114.27,0,0,1-10.39-9.29c-4.46-4.49-7.76-8.35-8.91-10.44.43-.36.85-.77,1.33-1.12,19.12-13.82,39.42-25.52,61.55-33.9a126.23,126.23,0,0,1,21-6.12,4.71,4.71,0,0,0,2.9-1.93A68.35,68.35,0,0,1,249.87,137a65.72,65.72,0,0,1,27.76-4.79c7.64.27,15,2,22.3,4,.23.06.42.29.73.52-.44.45-.82.9-1.26,1.29-1.24,1.07-2.5,2.11-3.74,3.18a19.69,19.69,0,0,0-4.57,5.55,15.49,15.49,0,0,0-1.32,3.34,6.13,6.13,0,0,0,1.41,5.78,14.42,14.42,0,0,0,5.37,3.92A75.77,75.77,0,0,1,316.83,173a74.16,74.16,0,0,1,21.52,33.17c.2.65.43,1.3.69,2.1a37.46,37.46,0,0,1,16.08,12.41,49.08,49.08,0,0,1,7.08,12.55c1.62,4.26,3,8.61,4.49,12.92a1.57,1.57,0,0,1,0,.55c-.52.3-.92-.11-1.31-.32-2.11-1.16-4.2-2.37-6.32-3.52a42.66,42.66,0,0,0-17.77-4.92c-.5,0-1,0-1.56.07-.69,2.67-1.26,5.27-2,7.8s-2.51,7-3.46,9.7m-39,1a25.32,25.32,0,0,0-1.14-6.85A28.91,28.91,0,0,0,286.65,238l-2.34-2.32A11.82,11.82,0,0,1,286,236a25.29,25.29,0,0,1,6.07,3.39,19.67,19.67,0,0,1,7.29,10.37,20.17,20.17,0,0,1,.82,6.37m35.64-20.35a12.27,12.27,0,0,1,.36-1.53,32.75,32.75,0,0,1,6-.09,60.07,60.07,0,0,1,6.13.79,49.37,49.37,0,0,1,5.73,1.53c1.92.62,3.79,1.42,5.93,2.24-.14-.58-.18-.9-.28-1.2a53.93,53.93,0,0,0-4.29-9.37,42.11,42.11,0,0,0-6.85-9,30.12,30.12,0,0,0-11.65-7.43c-.39-.13-.76-.33-1.1-.47-.63-2-1.16-3.91-1.83-5.76-7-19.39-20.17-33.12-38.68-41.89a22.31,22.31,0,0,1-5.62-3.59c-4.2-3.85-5.13-8.4-2.79-13.57a23.81,23.81,0,0,1,4-6c.5-.56,1-1.13,1.75-2-11.74-3-23.07-3.3-34.35-.12-14.53,4.09-26,12.64-34.92,24.56-.73.18-1.31.36-1.9.46a119,119,0,0,0-18.63,5.13c-21.79,7.8-41.7,19.14-60.64,32.3a9.79,9.79,0,0,0-1.18,1.11c14.66,16.92,32.29,28.92,53.94,34.57a2.05,2.05,0,0,1,.21.55c0,.6.06,1.2.07,1.81A68.65,68.65,0,0,0,199,260c.22.64.55,1.24.78,1.76,2.09.9,4.2.76,6.24,1a87.55,87.55,0,0,0,21.88.32c8.76-1.05,17-3.54,24.3-8.65,2.26-1.58,4.56-3.09,6.86-4.6a47,47,0,0,1,7.7-4.19A22.58,22.58,0,0,1,277,243.84a10.92,10.92,0,0,1,2.29.35,8.17,8.17,0,0,1,5.34,4.88,21.66,21.66,0,0,1,1.63,8.3m-68,14.77,56.4,36" transform="translate(66.28 -27.55)"/><g id="需改"><path d="M286.41,260.9c-.58-.95-.07-2.56-.08-3.4a21.69,21.69,0,0,0-1.63-8.3,8.17,8.17,0,0,0-5.34-4.88,11,11,0,0,0-2.29-.35,22.69,22.69,0,0,0-10.32,1.83,46.62,46.62,0,0,0-7.7,4.19c-2.3,1.51-4.61,3-6.86,4.6-7.31,5.11-15.54,7.6-24.3,8.65a87.62,87.62,0,0,1-21.89-.32c-2-.27-4.14-.13-6.23-1a18.45,18.45,0,0,1-.78-1.76,68.77,68.77,0,0,1-3.72-21.26c0-.6,0-1.21-.06-1.81a2.25,2.25,0,0,0-.21-.54c-21.65-5.66-39.28-17.66-53.94-34.58a11.62,11.62,0,0,1,1.17-1.11c18.94-13.16,38.85-24.5,60.64-32.3a118,118,0,0,1,18.64-5.12c.59-.11,1.17-.29,1.89-.47,8.92-11.92,20.4-20.47,34.93-24.56,11.28-3.18,22.6-2.86,34.35.13-.76.88-1.25,1.45-1.75,2a23.69,23.69,0,0,0-4,6c-2.34,5.17-1.41,9.72,2.79,13.56a22.17,22.17,0,0,0,5.62,3.6c18.51,8.76,31.68,22.49,38.68,41.88.67,1.86,1.2,3.76,1.83,5.76.33.14.7.34,1.1.47a30.39,30.39,0,0,1,11.65,7.43,42.69,42.69,0,0,1,6.85,9,54.64,54.64,0,0,1,4.28,9.37c.1.3.15.62.29,1.2-2.15-.82-4-1.62-5.93-2.24a49.91,49.91,0,0,0-5.73-1.53c-2-.39-4.08-.6-6.14-.79a31.92,31.92,0,0,0-6,.1,13.31,13.31,0,0,0-.36,1.53c-.62,6-6,19-8.52,24.41M301.89,260c-.85.18-1.19,0-1.17-.62a45.62,45.62,0,0,0-1.35-9.58,19.71,19.71,0,0,0-7.29-10.37,25.64,25.64,0,0,0-6.07-3.39,11.6,11.6,0,0,0-1.66-.31l2.34,2.33a28.89,28.89,0,0,1,7.4,11.64,24.57,24.57,0,0,1,1.14,6.85c0,.76-.08,3.09-.13,4M169.29,217.66c2.07-1.25,4-2.47,6-3.63a93.55,93.55,0,0,1,21.16-9.45c6.33-1.82,12.73-2.89,19.37-2a30.1,30.1,0,0,1,17.74,8.69,36.49,36.49,0,0,1,10.17,20.45,23.08,23.08,0,0,1,.07,4.63,1.68,1.68,0,0,1-1.33,1.82c-.29-.33-.66-.68-.95-1.08-.61-.83-1.17-1.7-1.77-2.55-.23-.32-.39-.8-1-.56.14,5.53-1.85,10.41-4.89,14.92-1.11,1.64-2.41,3.14-3.61,4.71-.22.3-.68.54-.4,1.05A27.05,27.05,0,0,0,241,248.6a18.86,18.86,0,0,0,6.07-11.12,48.28,48.28,0,0,0,.24-5.39c0-.58,0-1.15,0-1.9a8.27,8.27,0,0,1,1.38.33,3.45,3.45,0,0,1,1.07.69,3,3,0,0,1,.88,1.25c.31,1.29.47,2.62.72,4.06a6.12,6.12,0,0,0,2.36-1.5,105.69,105.69,0,0,1,19.09-11.76,82.58,82.58,0,0,1,42.87-8.07,74,74,0,0,1,24.63,6.34c.5.23,1,.71,1.79.42-.43-.44-.76-.81-1.13-1.15a34.13,34.13,0,0,0-7.74-5.1,46.17,46.17,0,0,0-14.08-4,74.55,74.55,0,0,0-23.14.81c-3.55.64-7.06,1.52-10.58,2.28-.55.12-1.11.18-2.12.34.73-1,1.15-1.59,1.66-2.14a25.53,25.53,0,0,1,11.49-7.13l2.59-.79c-2-5.16-5.33-9.15-9.16-12.79-3.47-3.29-5.59-4.83-7.17-5.2,1.3,3.67.78,7.34.22,11-.06.38-.12.86-.71.84-2.86-7.92-5-11.51-7.92-13.35a21.34,21.34,0,0,1,.72,8,27.36,27.36,0,0,1-2.1,7.9c-.84-2.43-1.5-4.63-2.36-6.75a22,22,0,0,0-3.93-6,31.1,31.1,0,0,0-5.34-4.9,5.35,5.35,0,0,0,.32,1c3.12,4.54,3.87,9.67,3.81,15,0,.4,0,.89-.76.95a43.21,43.21,0,0,0-7.94-9.28,33.8,33.8,0,0,0-11-6.15,38.9,38.9,0,0,0-12.19-1.93c-5.22,0-9.89,1-12.22,2.51a3.58,3.58,0,0,0,.49.53,22.57,22.57,0,0,1,5.49,5.41,4.67,4.67,0,0,1,.45,1.12c-.44.09-.68.18-.93.2-4.64.3-9.29.46-13.91.93-4.27.44-8.54,1.05-12.75,1.89-6.26,1.24-12.58,1.91-18.9,2.69a17,17,0,0,1-2,0c.14-.73.67-.68,1-.8a142.91,142.91,0,0,0,25.06-11.49c1.87-1.07,3.74-2.13,5.68-3.06a119.6,119.6,0,0,1,46.53-11.5,86.84,86.84,0,0,1,22.84,2,73.89,73.89,0,0,1,29.21,13.09c.54.42,1.1.83,1.67,1.21.26.17.53.48,1,.11a11.85,11.85,0,0,0-1.61-2.54,49.66,49.66,0,0,0-21-16.24,46.78,46.78,0,0,0-10.57-3.29,2.87,2.87,0,0,1-2.46-2c-.59-1.62-1.35-3.18-1.79-4.83-1.41-5.35-1.21-10.57,1.56-15.51a9,9,0,0,0,.46-1.16,3.14,3.14,0,0,0-.62-.17c-.51,0-1,0-1.55.05a55.38,55.38,0,0,0-17.72,4.31c-10.46,4.5-19.25,11.29-27,19.56-1,1.06-1.79,2.46-3,3.16s-2.79.73-4.22,1a104.7,104.7,0,0,0-19.43,6.06c-17.35,7.08-33.64,16.18-49.45,26.16a4.38,4.38,0,0,0-.7.65C155.15,207.82,161.83,213.77,169.29,217.66Zm47-6.22a5.11,5.11,0,0,0-2.49-1,33.68,33.68,0,0,0-13.08.3,81,81,0,0,0-24.41,9.53,10.09,10.09,0,0,0-1.09.79,6.45,6.45,0,0,0,3.55,1.54,27.4,27.4,0,0,0,3.79.78c1.22.13,2.42.7,3.76.37-.44-1.19-.86-2.22-1.2-3.28-.15-.46-.34-1,.25-1.37,6.24,1,7.3,1,9,.33-.21-.88-1.29-1.4-1-2.62,1.31.34,2.6.74,3.92,1s2.68.64,4.05.06c.37-1.53-.58-3.09.25-4.67a19.31,19.31,0,0,0,8,2.25c.24-1.48-.53-2.89.29-4.28C211.9,210.92,214,211.71,216.27,211.44ZM206,254.56c0,.74.44.84.81,1a16.81,16.81,0,0,0,5.79,1.15,4.93,4.93,0,0,0,3.39-.91,58.49,58.49,0,0,0,11-9.67,38.32,38.32,0,0,0,5.9-8.75c.14-.28.59-.64.06-1.08-.51.6-1,1.2-1.5,1.79a14.52,14.52,0,0,1-6.06,4.25c-1.12.41-2.33.59-3.49.91-.42.12-1,0-1.17.65,1,1.17,2.79.79,3.89,1.93-1.4,1.37-3.14,1.53-4.81,1.82-1.27.23-2.57.27-3.85.43-.28,0-.72-.05-.7.54.93,1,2.53.6,3.9,1.58-1,.32-1.74.58-2.48.74a16,16,0,0,1-2.29.31c-.77.05-1.55,0-2.33,0a5.18,5.18,0,0,0-2.29.16c.61,1.32,2.09,1.37,2.75,2.33-.05.12-.06.24-.12.26C210.41,255.05,208.17,254.38,206,254.56Zm9.16-69-6.86,4.62c-.05,0,0,.16-.06.4l2.74-.19c.85-.07,1.71-.18,2.56-.24s1.89-.07,2.84-.14a11,11,0,0,0,2.92,0A18,18,0,0,0,215.19,185.57Z" transform="translate(66.28 -27.55)"/></g><path class="cls-1" d="M216.23,211.31c-2.26.27-4.37-.52-6.45-.25-.83,1.39-.05,2.79-.3,4.28a19.39,19.39,0,0,1-8-2.25c-.82,1.58.12,3.14-.25,4.67-1.36.58-2.72.19-4.05-.06s-2.6-.65-3.91-1c-.26,1.22.81,1.74,1,2.62-1.73.66-2.78.62-9-.34-.59.37-.4.92-.25,1.38.34,1.06.76,2.09,1.2,3.28-1.33.33-2.54-.25-3.76-.37a27.57,27.57,0,0,1-3.78-.78c-1.22-.31-2.52-.46-3.56-1.55.42-.3.73-.58,1.1-.79a81.18,81.18,0,0,1,24.41-9.52,33.67,33.67,0,0,1,13.08-.3A5,5,0,0,1,216.23,211.31Z" transform="translate(66.28 -27.55)"/><path class="cls-1" d="M206,254.43c2.13-.18,4.38.49,6.44-.53.05,0,.06-.14.11-.26-.66-1-2.14-1-2.74-2.33a5.16,5.16,0,0,1,2.29-.16c.77,0,1.55,0,2.32,0a16.1,16.1,0,0,0,2.3-.31c.73-.16,1.45-.43,2.47-.74-1.37-1-3-.56-3.9-1.58,0-.59.42-.51.7-.54,1.28-.16,2.58-.21,3.85-.43,1.67-.29,3.42-.45,4.81-1.82-1.09-1.14-2.88-.76-3.89-1.93.13-.69.76-.53,1.18-.65,1.15-.33,2.36-.5,3.48-.91a14.55,14.55,0,0,0,6.07-4.26c.5-.58,1-1.18,1.49-1.79.54.45.09.81,0,1.09A38.64,38.64,0,0,1,227,246,58.86,58.86,0,0,1,216,255.68a4.92,4.92,0,0,1-3.39.91,16.87,16.87,0,0,1-5.79-1.16C206.43,255.26,206,255.16,206,254.43Z" transform="translate(66.28 -27.55)"/><path class="cls-1" d="M215.15,185.43a18.25,18.25,0,0,1,4.14,4.45,11,11,0,0,1-2.92,0c-.94.06-1.89.08-2.83.14s-1.71.16-2.57.23-1.81.13-2.73.2c0-.24,0-.37,0-.4Z" transform="translate(66.28 -27.55)"/><g id="_1-内部需改" data-name="1-内部需改"><path class="cls-2" d="M153.32,203.44s42.31-27.88,67.8-32.43c0,0,3.52-.68,5-1s2-1.44,6.07-5.79c0,0,22.16-23.08,44.76-21.55,0,0-6.56,7.6.19,22.24a3.67,3.67,0,0,0,2.81,1.31s24.91,6,32.38,22.2c0,0-44.53-37.32-109.66-.49,0,0-16.26,8.15-23.28,10.65,0,0,7.13-.18,21.35-2.66A187.11,187.11,0,0,1,227.91,193s-.45-2.59-6.45-7c0,0,24-12.06,43.3,14.74,0,0,2.77-6.49-3.34-16.87,0,0,9.73,7.09,11.56,17.72a23.16,23.16,0,0,0,1.43-16s4.83,3.52,8,13.31a19.36,19.36,0,0,0,.39-11.74s9.58,3.19,16.3,18.13a25.16,25.16,0,0,0-15.65,9.84S323.2,203,342.13,222c0,0-43-23.23-90.64,14.53,0,0-.24-.79-.78-4.06,0,0-.34-1.91-3.38-2.25,0,0,3.28,18.46-17.46,24.51,0,0,8.35-9.14,9.2-20.88,0,0,3,4.31,3.58,4.44,0,0,1.31.48,1.21-5.6s-14.84-54.6-74.58-14.82C169.28,217.85,155.68,210.42,153.32,203.44Z" transform="translate(66.28 -27.55)"/></g><g id="鱼鳍需改"><path d="M237.34,167.44s11-18,33.8-20.55c0,0-4.68,5.22,1.84,19C273,165.88,260.91,161.31,237.34,167.44Z" transform="translate(66.28 -27.55)"/></g><g id="SRM"><g id="SRM背景需改"><path d="M166.74,293.78l-4,19.71,1.78,3.25a6.31,6.31,0,0,1-2.12,8.34l-2.31,1.49L155,347.15,210,340.2l6.7-7.42a1.07,1.07,0,0,1,1.55.17l2.09,5.8L304.37,327l6.88-8.77a1.36,1.36,0,0,1,2.06.15l5.1,6.87,17.26-2.16L343,313a1.48,1.48,0,0,1,2.54.26l3.67,8.11,20.58-2.57L379.36,280c.81-3.16,1.77-6.5.45-13.82a7.56,7.56,0,0,0-.62-1.8,13,13,0,0,0-13.49-7.21L305,264.89l-7.06,3.42a12.41,12.41,0,0,1-9.49.56l-3.94-1.38-47.75,6.07-.94.83a10.63,10.63,0,0,1-12.79.92h0l-48,6.09-5.62,6.83A12.83,12.83,0,0,0,166.74,293.78Z" transform="translate(66.28 -27.55)"/><path class="cls-1" d="M153,348.92l5.73-23.29,2.81-1.81a4.83,4.83,0,0,0,1.61-6.36l-2-3.73,4.12-20.25a14.3,14.3,0,0,1,3-6.2l6-7.29,49.12-6.24.46.3a9.14,9.14,0,0,0,11-.79l1.29-1.13L284.64,266l4.28,1.49a10.94,10.94,0,0,0,8.33-.48l7.28-3.54.25,0,60.73-7.72a14.44,14.44,0,0,1,15,8.07,8.33,8.33,0,0,1,.73,2.16c1.34,7.4.42,11-.39,14.15l-.08.31L371,320.17,348.33,323l-4.13-9.12-7.7,10.6-18.77,2.34-5.51-7.41-7.05,9-85.86,12-2.15-6-6.46,7.16Zm8.35-21.42L157,345.39l52.22-6.61,6.47-7.15a2.6,2.6,0,0,1,1.95-.59,2.56,2.56,0,0,1,1.76,1l.14.19,1.76,4.87,82.26-11.51,6.63-8.42a2.81,2.81,0,0,1,2.23-.84,2.85,2.85,0,0,1,2.09,1.15l4.59,6.16,15.74-2,7-9.55a3,3,0,0,1,5.11.53l3.22,7.11,18.46-2.31L378,279.31c.77-3,1.56-6.11.34-12.86a5.86,5.86,0,0,0-.5-1.43,11.58,11.58,0,0,0-11.94-6.36l-60.49,7.69-6.84,3.31a14,14,0,0,1-10.63.62L284.32,269l-46.94,6-.6.52a12.15,12.15,0,0,1-14.11,1.35l-46.88,6-5.24,6.36a11.43,11.43,0,0,0-2.34,4.9l-3.9,19.17,1.51,2.77a7.83,7.83,0,0,1-2.62,10.32Z" transform="translate(66.28 -27.55)"/></g><g id="_1-SRM需改" data-name="1-SRM需改"><path class="cls-2" d="M176.3,288.45a12.57,12.57,0,0,1,3.16-1.83c1.08-.24,45-6,45-6s.4.06.44.4.19,1.11.19,1.11Z" transform="translate(66.28 -27.55)"/><path class="cls-2" d="M172.09,294.93a24.54,24.54,0,0,1,1.42-2.91l51.22-6.73a26.86,26.86,0,0,1-.92,2.84Z" transform="translate(66.28 -27.55)"/><path class="cls-2" d="M170.52,301.08l.88-3.57,51-6.77s-1.17,2.89-3.52,3.91Z" transform="translate(66.28 -27.55)"/><path class="cls-2" d="M169.11,307.13l1-4.21,15.88-2a7.07,7.07,0,0,0-.57,2.44c.15.63,0,.87,1.32,1.44Z" transform="translate(66.28 -27.55)"/><path class="cls-2" d="M168.72,308.42a11.18,11.18,0,0,0,.24,4.66l47.6-6.28s-2.46-3.61-4.93-4.12Z" transform="translate(66.28 -27.55)"/><path class="cls-2" d="M169.11,313.59l47.72-6.13a8.69,8.69,0,0,1,1.39,5l-3.43,14.08s-2.17,7.39-7.34,9.14l-45.31,6s-2.5-2.24,2.73-11.45a27.35,27.35,0,0,1,2.77-2.46c.84-.54,31.27-4.27,31.27-4.27s2.29-1,2.35-4.63c0,0,.6-1.63-4-1.45L177.5,320S171.79,320.57,169.11,313.59Z" transform="translate(66.28 -27.55)"/><path class="cls-2" d="M233.86,280.92a6.19,6.19,0,0,1,2.6-1.85c1.29-.28,46-6,46-6a3.4,3.4,0,0,1,2.89,1.14Z" transform="translate(66.28 -27.55)"/><path class="cls-2" d="M231.75,287.16a16.76,16.76,0,0,1,.75-2.92l54.13-7.12a7.06,7.06,0,0,1,.12,2.67Z" transform="translate(66.28 -27.55)"/><path class="cls-2" d="M230.25,293.17s.84-3.3.9-3.63l55-7.13s-.45,2.9-.66,3.45Z" transform="translate(66.28 -27.55)"/><path class="cls-2" d="M229.86,295.1s-.91,3.43-.94,4.09l15.82-2.05s.72-3.75,1.24-4.15Z" transform="translate(66.28 -27.55)"/><path class="cls-2" d="M228.53,300.45l-1.14,4.84,55.12-7.18s.91-4.63,1.12-4.81-15.85,2-15.85,2a7.49,7.49,0,0,1-5,4.69l-18,2.38s-1.24-.07-.34-4Z" transform="translate(66.28 -27.55)"/><path class="cls-2" d="M268.82,289.94s-.16,3.12-.76,4.05L284,292s.76-3.35.88-4.17Z" transform="translate(66.28 -27.55)"/><path class="cls-2" d="M227.2,306l-5.53,23.67s-.85,3.49,1.68,4l10-1.32s2.89-.12,4.42-5.77,1.44-8.95,3.8-10.23l9.07-1.28a18.38,18.38,0,0,1,3.36,2.76c.81,1.09,9,9.79,12.43,9.83,0,0,.28.32,2.65,0l10.67-1.45s.28-.12.36-.92-11.31-11.55-11.53-12.67,6.43-.14,13.74-13.79Z" transform="translate(66.28 -27.55)"/><path class="cls-2" d="M301.14,272.09l35.68-4.65s.87-.4-2.86-1.26l-30.16,4A5.13,5.13,0,0,0,301.14,272.09Z" transform="translate(66.28 -27.55)"/><path class="cls-2" d="M340.94,266.86a12.3,12.3,0,0,1,3.7-2l.15,0c1.75-.36,21.74-3,21.74-3a8.77,8.77,0,0,1,4.09,1.05Z" transform="translate(66.28 -27.55)"/><path class="cls-2" d="M374.75,268.25a6.26,6.26,0,0,0-1.24-2.61l-73.92,9.72a7.66,7.66,0,0,0-.7,2.87Z" transform="translate(66.28 -27.55)"/><path class="cls-2" d="M298.17,280.76s-.68,2.94-.9,3.52L375,274.14a6.89,6.89,0,0,0,.32-3.58Z" transform="translate(66.28 -27.55)"/><path class="cls-2" d="M296.89,286.17s-.84,3.81-1,4.17l15.81-2a40.79,40.79,0,0,1,1.07-4.21Z" transform="translate(66.28 -27.55)"/><path class="cls-2" d="M295.62,291.73s-1.1,3.92-1.2,4.72l15.91-2s1-4.54,1.12-4.84Z" transform="translate(66.28 -27.55)"/><path class="cls-2" d="M294.26,297.16l-5.63,23.69s-.72,3.37,1.64,3.73l10-1.2s3.26-.2,4.65-6.47a1.62,1.62,0,0,1,0-.19c1.36-6.45,5.19-21.62,5.19-21.62Z" transform="translate(66.28 -27.55)"/><path class="cls-2" d="M326.94,282.28a2.86,2.86,0,0,1,.53,1.55c-.09.64-.71,2.2-.65,2.48l15.94-2s.53-3.55,1.76-4.28Z" transform="translate(66.28 -27.55)"/><path class="cls-2" d="M326.54,287.55l-1.17,4.9,15.87-2.07a44.54,44.54,0,0,1,1.21-4.78Z" transform="translate(66.28 -27.55)"/><path class="cls-2" d="M325.19,293l-5.6,23.58s-.84,3.94,1.9,4l10-1.32s3.22-.78,4.21-5.54l5.5-22.82Z" transform="translate(66.28 -27.55)"/><path class="cls-2" d="M357.91,278.23a2.63,2.63,0,0,1,.43,1,12.4,12.4,0,0,1-.59,2.84l15.8-1.94s.82-3,1.06-4Z" transform="translate(66.28 -27.55)"/><path class="cls-2" d="M357.39,283.46s-1.06,4.55-1.08,4.83,0,.1,0,.1l15.76-2.08s.88-3,1.18-4.85Z" transform="translate(66.28 -27.55)"/><path class="cls-2" d="M356.17,289l-5.39,22.64s-1.51,4.93,1.58,4.91l10.19-1.34s2.7-.56,4-5.25c0,0,5.36-23,5.51-23.08Z" transform="translate(66.28 -27.55)"/></g></g><g id="连接处填充"><path class="cls-1" d="M284.47,235.8s13.52,8.63,10.26,32.79l5.9-.58S304.72,239.88,284.47,235.8Z" transform="translate(66.28 -27.55)"/><path class="cls-1" d="M336.19,234.34s-4.94,19.41-10.55,27.56l6.47-.43c-.59,1.66,7.25-16.55,7.58-23.5Z" transform="translate(66.28 -27.55)"/><path class="cls-1" d="M282.43,257.17s-.58,8.75-2.18,10.8l5.84-.75s.79-11-.47-15.31Z" transform="translate(66.28 -27.55)"/></g><g id="鱼尾"><path class="cls-1" d="M228.06,338.76l28.12,11.88-12.81,28.61s34.56-13.51,62.37-51.62Z" transform="translate(66.28 -27.55)"/><path d="M239.23,338,297.79,330s-24,30-44.73,39.19l10.25-21.61Z" transform="translate(66.28 -27.55)"/></g></svg>