<svg id="图层_1" data-name="图层 1" xmlns="http://www.w3.org/2000/svg" viewBox="0 0 1065.84 753.54"><defs><style>.cls-1{fill:#fff;}.cls-2{fill:none;}.cls-3{fill:#d9d9d9;}.cls-4{stroke:#fff;stroke-miterlimit:10;stroke-width:3px;}</style></defs><g id="背景填充"><polygon points="535.59 355.78 534.62 371.41 556.65 372.75 555.75 349.08 535.59 355.78"/><polygon points="565.5 345.81 565.13 370.52 623.55 359.13 631.07 341.86 565.5 345.81"/></g><path d="M-196.32-74.27v745c0,1.7,0,3.4.1,5.2a18.43,18.43,0,0,0,.5,2.5,23.36,23.36,0,0,0,2.6.4c1.6.1,3.1,0,4.7,0H861.78c2.3,0,4.6-.2,6.8-.4,0,.3.1.7,0,.8s-.5,0-.8,0h-1065V-74.27Z" transform="translate(197.22 74.27)"/><path class="cls-1" d="M329.21,280.47a34.23,34.23,0,0,0-2.75-21.73c-1.64-3.73-5-5.29-9-5.51a37.26,37.26,0,0,0-15.85,2.68,104.27,104.27,0,0,0-13.92,6.92c-5.73,3.42-11.31,7.14-16.82,11-16.59,11.76-35.2,18.16-55.29,20.84a184.24,184.24,0,0,1-47.85,0c-4.1-.52-8.11-.89-12.21-1.26-.89-.08-1.86-.15-2.75-.3-5.36-1-9-3.57-10.79-9.08a166.49,166.49,0,0,1-8.56-42.5c-.08-1.86-.3-3.64-.45-5.43-9.37-3.57-18.68-6.92-27.76-10.57A193.11,193.11,0,0,1,78.49,211.7a247.3,247.3,0,0,1-24.26-16.89,249.2,249.2,0,0,1-22.48-20.1c-9.6-9.6-16.74-18-19.2-22.47,1-.74,1.86-1.71,2.9-2.38,41.31-29.92,85.14-55.15,133-73.23a275.12,275.12,0,0,1,45.47-13.25,10,10,0,0,0,6.25-4.17,147.87,147.87,0,0,1,59.47-44.95,142.48,142.48,0,0,1,60-10.41c16.52.59,32.37,4.39,48.15,8.7a5.91,5.91,0,0,1,1.56,1.12c-1,1-1.78,1.93-2.75,2.75-2.68,2.31-5.43,4.54-8,6.85a42.58,42.58,0,0,0-9.9,12,35.62,35.62,0,0,0-2.83,7.22A13.26,13.26,0,0,0,348.86,55a30.44,30.44,0,0,0,11.61,8.49A164.78,164.78,0,0,1,404.3,91.89a159.91,159.91,0,0,1,46.44,71.74c.44,1.41.89,2.82,1.49,4.54,14.36,5.73,25.6,15,34.75,26.79a108,108,0,0,1,15.33,27.09c3.5,9.22,6.48,18.6,9.68,27.9a3.18,3.18,0,0,1-.08,1.19c-1.12.67-2-.22-2.83-.67-4.54-2.53-9.08-5.13-13.62-7.59a92.83,92.83,0,0,0-38.4-10.64c-1.11,0-2.23.08-3.35.15-1.48,5.81-2.75,11.39-4.39,16.89-1.63,5.29-5.43,15.19-7.44,21m-84.39,2A56,56,0,0,0,355,257.47a62.32,62.32,0,0,0-16-25.15l-5.06-5a27.14,27.14,0,0,1,3.57.67,58.06,58.06,0,0,1,13.1,7.29,42.77,42.77,0,0,1,15.78,22.33,43.21,43.21,0,0,1,1.79,13.77m77-43.91c.22-1.12.45-2.23.74-3.28a76.65,76.65,0,0,1,13-.22,130.58,130.58,0,0,1,13.24,1.71A100.84,100.84,0,0,1,484.6,229c4.17,1.26,8.18,3.05,12.8,4.83-.3-1.26-.37-1.93-.6-2.6A117.67,117.67,0,0,0,487.58,211a89.88,89.88,0,0,0-14.81-19.5,65.67,65.67,0,0,0-25.16-16.08,21.36,21.36,0,0,1-2.38-1c-1.26-4.31-2.53-8.41-3.87-12.43C426.25,120,397.75,90.4,357.79,71.42a49.59,49.59,0,0,1-12.13-7.81c-9.08-8.34-11.09-18.16-6-29.33a50.09,50.09,0,0,1,8.71-12.87c1-1.19,2.15-2.46,3.79-4.39-25.38-6.48-49.86-7.15-74.2-.3-31.4,8.86-56.18,27.31-75.46,53.06-1.56.37-2.83.75-4.09,1A262.84,262.84,0,0,0,158,81.84c-47.11,16.89-90.12,41.38-131,69.8-.89.75-1.79,1.57-2.61,2.39,31.71,36.54,69.81,62.51,116.55,74.71a3.35,3.35,0,0,1,.44,1.19c.08,1.27.15,2.61.15,3.87a148.08,148.08,0,0,0,8,45.92c.52,1.27,1,2.53,1.71,3.8,4.54,1.93,9.08,1.63,13.47,2.23a186.51,186.51,0,0,0,47.33.67c18.9-2.31,36.69-7.67,52.47-18.68,4.91-3.42,9.82-6.7,14.81-9.9A93,93,0,0,1,296,248.76a48.72,48.72,0,0,1,22.32-3.94,26.93,26.93,0,0,1,4.92.74,17.48,17.48,0,0,1,11.53,10.72,46.17,46.17,0,0,1,3.5,17.93m-146.91,32,121.83,77.84" transform="translate(197.22 74.27)"/><path id="需改" d="M338.59,281.81c-1.27-2-.15-5.51-.15-7.37a47.5,47.5,0,0,0-3.5-17.94,17.73,17.73,0,0,0-11.54-10.56,22.46,22.46,0,0,0-4.91-.75,48.6,48.6,0,0,0-22.32,3.95,102,102,0,0,0-16.67,9c-5,3.27-10,6.47-14.81,10-15.78,11-33.57,16.37-52.47,18.68a193.73,193.73,0,0,1-47.33-.67c-4.39-.59-8.93-.3-13.47-2.23-.6-1.27-1.19-2.53-1.71-3.8a148.65,148.65,0,0,1-8-45.91,35.66,35.66,0,0,0-.14-3.87,3.42,3.42,0,0,0-.45-1.19C94.34,216.91,56.24,190.94,24.61,154.4a15.76,15.76,0,0,1,2.6-2.38c40.93-28.43,83.95-52.92,131.06-69.81A259.22,259.22,0,0,1,198.6,71.12c1.27-.22,2.53-.59,4.09-1,19.2-25.75,44-44.2,75.32-53.06,24.33-6.84,48.82-6.17,74.19.3-1.63,1.94-2.67,3.13-3.79,4.39a51.64,51.64,0,0,0-8.71,12.88c-5.06,11.16-3.05,21,6,29.32a49.78,49.78,0,0,0,12.13,7.81c40,18.9,68.47,48.6,83.57,90.5,1.49,4,2.61,8.11,3.87,12.42.75.3,1.49.75,2.39,1a65.12,65.12,0,0,1,25.22,16.07,89.73,89.73,0,0,1,14.81,19.5A114.5,114.5,0,0,1,497,231.57c.23.67.3,1.27.6,2.61-4.62-1.79-8.63-3.5-12.8-4.84a100.84,100.84,0,0,0-12.36-3.28c-4.39-.81-8.85-1.26-13.24-1.71a70.05,70.05,0,0,0-13,.23,27,27,0,0,0-.74,3.27c-1.27,12.88-13,41-18.46,52.77m-55-.6c-1.86.37-2.61.07-2.53-1.27a96.81,96.81,0,0,0-2.91-20.68,42.91,42.91,0,0,0-15.7-22.48,52.46,52.46,0,0,0-13.1-7.29,29.86,29.86,0,0,0-3.57-.67l5.06,5a62.53,62.53,0,0,1,16,25.16,55.05,55.05,0,0,1,2.46,14.81c.07,1.63-.15,6.7-.3,8.56M85.48,188.41c4.47-2.68,8.71-5.36,13.1-7.82,14.51-8.41,29.55-15.77,45.69-20.39C158,156.33,171.81,154,186.1,156c14.88,2.08,27.76,8.11,38.33,18.75a79,79,0,0,1,21.95,44.21,49.68,49.68,0,0,1,.15,10,3.58,3.58,0,0,1-2.9,3.87c-.67-.74-1.42-1.49-2.09-2.3-1.26-1.79-2.53-3.73-3.79-5.51-.52-.67-.82-1.71-2.24-1.19.3,12-4,22.47-10.56,32.22-2.39,3.5-5.21,6.77-7.82,10.2-.52.67-1.49,1.19-.89,2.23a56.94,56.94,0,0,0,24.11-13.25,40.85,40.85,0,0,0,13.1-24,103.74,103.74,0,0,0,.52-11.68c0-1.27.07-2.46.15-4.1a13.15,13.15,0,0,1,3,.75,6.81,6.81,0,0,1,2.3,1.49,6.63,6.63,0,0,1,1.86,2.67c.67,2.83,1.05,5.66,1.57,8.79,2.15-.45,3.57-2,5.13-3.28a230.26,230.26,0,0,1,41.23-25.45c29.32-14,60.21-20.09,92.65-17.41a160.69,160.69,0,0,1,53.21,13.69c1.12.52,2.09,1.56,3.87.89a24.56,24.56,0,0,0-2.45-2.45,75.2,75.2,0,0,0-16.67-11,98.61,98.61,0,0,0-30.44-8.71c-16.74-2.23-33.41-1.19-50,1.72-7.67,1.41-15.26,3.27-22.85,4.91-1.19.22-2.38.37-4.54.74,1.57-2.08,2.46-3.42,3.57-4.61a55,55,0,0,1,24.86-15.41L366,161c-4.31-11.16-11.53-19.79-19.79-27.61-7.52-7.14-12.06-10.42-15.48-11.24,2.83,8,1.71,15.86.44,23.74-.14.82-.22,1.86-1.56,1.86-6.18-17.11-10.72-24.85-17.12-28.87,1.27,5.88,2.46,11.46,1.57,17.27s-1.79,11.31-4.54,17c-1.79-5.21-3.2-10-5.06-14.59a48.62,48.62,0,0,0-8.49-13A67.21,67.21,0,0,0,284.41,115a12.61,12.61,0,0,0,.67,2.23c6.7,9.83,8.33,20.91,8.26,32.45,0,.89.07,1.93-1.64,2.08-4.91-7.22-10.27-14.29-17.12-20a74.58,74.58,0,0,0-23.66-13.32,83.73,83.73,0,0,0-26.35-4.24c-11.23-.07-21.35,2.08-26.42,5.43a4.91,4.91,0,0,0,1,1.12c4.76,3,8.41,7.29,11.83,11.68a9.68,9.68,0,0,1,1,2.39,9.66,9.66,0,0,1-2,.44c-10.05.67-20.1,1-30.07,2-9.23,1-18.45,2.31-27.53,4.09-13.55,2.68-27.17,4.17-40.86,5.81-1.49.07-2.9.07-4.39,0,.3-1.56,1.49-1.49,2.23-1.71a309.85,309.85,0,0,0,54.18-24.86c4-2.31,8-4.61,12.28-6.62,31.78-15.26,65.41-23.15,100.54-24.86a189.75,189.75,0,0,1,49.34,4.24c23,5,44.21,14.07,63.11,28.28,1.19.9,2.38,1.79,3.65,2.61.52.37,1.11,1,2.15.22a25.8,25.8,0,0,0-3.49-5.51C379.37,103,364,91.66,345.8,83.85A101.51,101.51,0,0,0,323,76.7a6.18,6.18,0,0,1-5.29-4.24c-1.26-3.5-2.9-6.85-3.87-10.42-3.05-11.53-2.6-22.84,3.35-33.49a13.78,13.78,0,0,0,1-2.53,8.94,8.94,0,0,0-1.26-.37c-1.12,0-2.24,0-3.35.08A120.72,120.72,0,0,0,275.25,35c-22.62,10-41.6,24.78-58.34,42.64C214.75,80,213,83,210.43,84.52s-6,1.56-9.08,2.16a224.56,224.56,0,0,0-42,13.09c-37.51,15.33-72.63,35-106.87,56.49A13.18,13.18,0,0,0,51,157.67C54.9,167.12,69.33,180,85.48,188.41ZM187,175a10.77,10.77,0,0,0-5.36-2.08c-9.45-1.86-18.9-1.19-28.28.67-18.82,3.65-36.16,11.16-52.76,20.54a25.66,25.66,0,0,0-2.38,1.71c2.23,2.31,5.06,2.68,7.66,3.35a62,62,0,0,0,8.19,1.71c2.6.3,5.21,1.49,8.11.82-1-2.61-1.86-4.76-2.6-7.07-.3-1-.75-2.16.52-3,13.47,2.09,15.78,2.16,19.5.75-.45-1.94-2.83-3.05-2.24-5.66,2.83.75,5.59,1.56,8.49,2.16s5.8,1.41,8.78.15c.82-3.28-1.27-6.7.52-10.12a40.77,40.77,0,0,0,17.19,4.83c.52-3.2-1.12-6.25.67-9.22C177.54,173.82,182.08,175.53,187,175Zm-22.1,93.1c-.08,1.57,1,1.79,1.71,2.16,3.87,1.86,8.26,2.16,12.5,2.46a10.89,10.89,0,0,0,7.37-1.94,127.82,127.82,0,0,0,23.89-20.91A81.45,81.45,0,0,0,223.09,231c.29-.6,1.26-1.42.14-2.38-1.11,1.26-2.15,2.6-3.2,3.87a31.84,31.84,0,0,1-13.09,9.22c-2.46.9-5.06,1.27-7.52,1.94-.89.22-2.31-.08-2.6,1.41,2.15,2.53,6,1.71,8.4,4.17-3.05,3-6.77,3.27-10.41,3.87-2.76.45-5.51.59-8.34.89-.59.08-1.56-.07-1.49,1.19,2,2.24,5.44,1.27,8.41,3.43a54.16,54.16,0,0,1-5.36,1.56,28.29,28.29,0,0,1-5,.67c-1.71.07-3.35,0-5.06,0s-3.2-.45-4.91.37c1.26,2.83,4.46,3,5.95,5.06-.15.23-.15.52-.22.6-4.47,2.38-9.31.89-13.92,1.26Zm19.72-149.06c-5,3.35-9.9,6.7-14.81,10-.07.08,0,.37-.15.89,2-.14,3.87-.22,5.88-.44s3.72-.37,5.58-.52,4.1-.15,6.11-.3,3.86.67,6.32,0a37.69,37.69,0,0,0-8.93-9.6Z" transform="translate(197.22 74.27)"/><path class="cls-1" d="M186.92,174.71c-4.91.6-9.45-1.11-13.92-.52-1.79,3.06-.07,6-.67,9.23a41.83,41.83,0,0,1-17.19-4.84c-1.79,3.43.22,6.78-.52,10.13-2.9,1.26-5.88.37-8.78-.15s-5.66-1.42-8.49-2.16c-.59,2.6,1.79,3.72,2.24,5.65-3.72,1.42-6,1.27-19.5-.74-1.27.74-.9,2-.52,3,.74,2.3,1.63,4.54,2.6,7.07-2.9.74-5.51-.52-8.11-.82a62,62,0,0,1-8.19-1.71c-2.6-.67-5.43-1-7.66-3.35a25.66,25.66,0,0,1,2.38-1.71c16.6-9.38,33.94-16.9,52.76-20.54,9.38-1.86,18.83-2.53,28.28-.67A11,11,0,0,1,186.92,174.71Z" transform="translate(197.22 74.27)"/><path class="cls-2" d="M164.81,267.89c4.62-.37,9.46,1,13.92-1.12.15,0,.15-.29.22-.59-1.41-2.09-4.61-2.16-5.95-5.06,1.71-.82,3.35-.3,4.91-.38s3.35.08,5.06,0a28.45,28.45,0,0,0,5-.66c1.56-.38,3.12-.9,5.36-1.57-3-2.16-6.4-1.19-8.41-3.42,0-1.27.89-1.12,1.49-1.19,2.75-.37,5.58-.45,8.33-.89,3.65-.6,7.37-1,10.42-3.87-2.38-2.46-6.25-1.64-8.41-4.17.22-1.49,1.64-1.12,2.53-1.42,2.53-.67,5.06-1.11,7.52-1.93a31.24,31.24,0,0,0,13.1-9.23l3.2-3.87c1.19,1,.14,1.71-.15,2.38a85.36,85.36,0,0,1-12.73,18.91,128.19,128.19,0,0,1-23.89,20.91,10.37,10.37,0,0,1-7.37,1.93c-4.24-.37-8.55-.67-12.5-2.45C165.71,269.68,164.74,269.45,164.81,267.89Z" transform="translate(197.22 74.27)"/><path class="cls-1" d="M184.54,118.75a39.36,39.36,0,0,1,8.93,9.6c-2.46.67-4.39-.15-6.33,0s-4.09.15-6.1.3-3.72.37-5.58.52l-5.88.45c.07-.52,0-.82.15-.9C174.64,125.45,179.55,122.17,184.54,118.75Z" transform="translate(197.22 74.27)"/><path id="_1-内部需改" data-name=" 1-内部需改" class="cls-3" d="M51,157.67s91.46-60.28,146.54-70.1c0,0,7.59-1.49,10.79-2.09s4.24-3.12,13.09-12.5c0,0,47.86-49.86,96.68-46.58,0,0-14.14,16.37.44,48.07a7.92,7.92,0,0,0,6.11,2.83s53.8,13,69.95,47.93c0,0-96.23-80.6-236.95-1,0,0-35.13,17.64-50.31,23,0,0,15.4-.37,46.14-5.73s55.66-6.48,58.79-6.33c0,0-1-5.58-13.92-15.25,0,0,51.87-26,93.62,31.85,0,0,6-14.07-7.21-36.39,0,0,21.06,15.33,25,38.32a49.79,49.79,0,0,0,3.05-34.53s10.42,7.59,17.34,28.73c0,0,4.69-10.57.82-25.38,0,0,20.69,6.92,35.2,39.15a54.36,54.36,0,0,0-33.79,21.28s85.81-26.27,126.74,14.81c0,0-92.87-50.23-195.87,31.41a84.2,84.2,0,0,1-1.71-8.79s-.75-4.16-7.3-4.83c0,0,7.07,39.89-37.73,53,0,0,18-19.72,19.87-45.09,0,0,6.48,9.3,7.82,9.6,0,0,2.82,1,2.6-12.06s-32.15-118-161.27-32.15C85.48,188.85,56.09,172.78,51,157.67Z" transform="translate(197.22 74.27)"/><path id="鱼鳍需改" d="M232.54,79.9s23.89-39,73-44.43c0,0-10.12,11.32,4,41C309.56,76.55,283.44,66.66,232.54,79.9Z" transform="translate(197.22 74.27)"/><g id="SRM"><path id="SRM背景需改" class="cls-4" d="M80,352.88l-8.71,42.57,3.87,7a13.71,13.71,0,0,1-4.54,18l-5,3.2-11,44.58,118.7-15,14.44-16a2.28,2.28,0,0,1,3.27.29l.07.08,4.54,12.57,181.74-25.45,14.88-19a2.93,2.93,0,0,1,4.17,0,1.5,1.5,0,0,1,.3.37l11,14.81L445,416.28l15.92-21.73a3.21,3.21,0,0,1,4.47-.67,3,3,0,0,1,1,1.27l8,17.49,44.43-5.58,20.62-83.88c1.71-6.84,3.87-14.06,1-29.91a20.87,20.87,0,0,0-1.26-3.87A28.18,28.18,0,0,0,510,273.77L378.7,290.44l-15.26,7.44a26.9,26.9,0,0,1-20.54,1.19l-8.48-3-103.15,13.1-2,1.71a22.94,22.94,0,0,1-27.61,2h0L98,326.09,85.85,340.82A26.15,26.15,0,0,0,80,352.88Z" transform="translate(197.22 74.27)"/><g id="_1-SRM需改" data-name=" 1-SRM需改"><path class="cls-3" d="M100.66,341.42s4.47-3.43,6.85-3.95,97.27-13,97.27-13,.89.15,1,.82.44,2.38.44,2.38Z" transform="translate(197.22 74.27)"/><path class="cls-3" d="M91.51,355.41a61.23,61.23,0,0,1,3-6.25l110.66-14.59a47.34,47.34,0,0,1-2,6.18Z" transform="translate(197.22 74.27)"/><path class="cls-3" d="M88.16,368.65,90,360.91l110.29-14.58s-2.6,6.25-7.59,8.48Z" transform="translate(197.22 74.27)"/><path class="cls-3" d="M85.11,381.75l2.23-9.08,34.31-4.39s-1.56,3.87-1.26,5.21,0,1.86,2.82,3.13Z" transform="translate(197.22 74.27)"/><path class="cls-3" d="M84.22,384.51a24.13,24.13,0,0,0,.52,10l102.85-13.62s-5.36-7.81-10.64-8.85Z" transform="translate(197.22 74.27)"/><path class="cls-3" d="M85.11,395.67l103.15-13.25s2.82,3.65,3,10.79l-7.44,30.44s-4.69,16-15.85,19.72L70,456.32s-5.43-4.84,5.88-24.71a56.8,56.8,0,0,1,6-5.35c1.78-1.2,67.57-9.23,67.57-9.23s4.91-2.24,5.06-10c0,0,1.27-3.5-8.56-3.12l-42.72,5.73C103.27,409.66,90.92,410.78,85.11,395.67Z" transform="translate(197.22 74.27)"/><path class="cls-3" d="M225,325.12s2.83-3.35,5.66-4,99.27-13,99.27-13a7.33,7.33,0,0,1,6.25,2.45Z" transform="translate(197.22 74.27)"/><path class="cls-3" d="M220.48,338.59a37.05,37.05,0,0,1,1.64-6.33l117-15.4s.89,4.39.22,5.8Z" transform="translate(197.22 74.27)"/><path class="cls-3" d="M217.21,351.61s1.78-7.14,1.93-7.89l118.78-15.4s-1,6.25-1.42,7.44Z" transform="translate(197.22 74.27)"/><path class="cls-3" d="M216.39,355.71s-1.94,7.44-2,8.85l34.16-4.39s1.56-8.11,2.68-9Z" transform="translate(197.22 74.27)"/><path class="cls-3" d="M213.49,367.31,211,377.73,330.1,362.18s1.94-10.05,2.38-10.42-34.23,4.39-34.23,4.39a16.23,16.23,0,0,1-10.87,10.12l-38.84,5.14s-2.68-.15-.75-8.71Z" transform="translate(197.22 74.27)"/><path class="cls-3" d="M300.56,344.62s-.37,6.77-1.64,8.78L333.3,349s1.64-7.22,1.94-9Z" transform="translate(197.22 74.27)"/><path class="cls-3" d="M210.58,379.22l-12,51.13s-1.78,7.52,3.65,8.56l21.58-2.83s6.25-.22,9.53-12.5,3.12-19.35,8.26-22.11l19.57-2.75s5.51,3.65,7.29,5.95,19.43,21.14,26.87,21.21c0,0,.59.67,5.73.08l23.07-3.13s.59-.22.74-2S300.48,395.89,300,393.44s13.92-.3,29.7-29.77Z" transform="translate(197.22 74.27)"/><path class="cls-3" d="M370.36,306.07,447.46,296s1.86-.89-6.17-2.75l-65.2,8.63A11.13,11.13,0,0,0,370.36,306.07Z" transform="translate(197.22 74.27)"/><path class="cls-3" d="M456.39,294.75a25,25,0,0,1,8-4.24l.37-.07c3.79-.75,47-6.4,47-6.4s5.73.07,8.85,2.31Z" transform="translate(197.22 74.27)"/><path class="cls-3" d="M529.47,297.73s-.89-3.87-2.67-5.65l-159.71,21s-1.79,4.1-1.49,6.18Z" transform="translate(197.22 74.27)"/><path class="cls-3" d="M364,324.75s-1.49,6.4-1.93,7.66l168-22a15.19,15.19,0,0,0,.67-7.74Z" transform="translate(197.22 74.27)"/><path class="cls-3" d="M361.21,336.43s-1.79,8.26-2.08,9l34.15-4.32a77.93,77.93,0,0,1,2.31-9.08Z" transform="translate(197.22 74.27)"/><path class="cls-3" d="M358.46,348.49s-2.39,8.48-2.61,10.19l34.38-4.39s2.16-9.82,2.39-10.42Z" transform="translate(197.22 74.27)"/><path class="cls-3" d="M355.48,360.17l-12.21,51.2s-1.56,7.29,3.58,8l21.65-2.61s7.07-.44,10.05-14a3.57,3.57,0,0,1,.07-.37c3-13.92,11.24-46.73,11.24-46.73Z" transform="translate(197.22 74.27)"/><path class="cls-3" d="M426.1,328a6,6,0,0,1,1.12,3.35c-.22,1.41-1.56,4.76-1.41,5.36l34.45-4.39s1.19-7.67,3.8-9.23Z" transform="translate(197.22 74.27)"/><path class="cls-3" d="M425.29,339.41l-2.53,10.64,34.3-4.47s1.79-8.85,2.61-10.34Z" transform="translate(197.22 74.27)"/><path class="cls-3" d="M422.31,351.24l-12.06,51s-1.78,8.48,4.1,8.71L436,408.1s6.92-1.71,9.08-12L457,346.77Z" transform="translate(197.22 74.27)"/><path class="cls-3" d="M493.08,319.31a5.87,5.87,0,0,1,.9,2.24c.22,1.26-1.27,6.1-1.27,6.1l34.16-4.17s1.79-6.55,2.31-8.71Z" transform="translate(197.22 74.27)"/><path class="cls-3" d="M491.89,330.63s-2.31,9.82-2.31,10.41,0,.23,0,.23l34-4.54s1.94-6.48,2.61-10.5Z" transform="translate(197.22 74.27)"/><path class="cls-3" d="M489.29,342.53l-11.69,48.9s-3.27,10.64,3.43,10.64l22-2.9s5.88-1.19,8.56-11.39c0,0,11.54-49.71,11.91-49.86Z" transform="translate(197.22 74.27)"/></g></g><g id="连接处填充"><path class="cls-1" d="M334.34,227.63s29.25,18.68,22.11,70.85l12.72-1.27C369.25,297.14,378.1,236.41,334.34,227.63Z" transform="translate(197.22 74.27)"/><path class="cls-1" d="M446.12,224.43s-10.64,42-22.77,59.53l14-.89c-1.26,3.57,15.63-35.8,16.37-50.75Z" transform="translate(197.22 74.27)"/><path class="cls-1" d="M330,273.77s-1.26,18.9-4.69,23.37l12.58-1.64s1.71-23.67-1-33.12Z" transform="translate(197.22 74.27)"/></g><g id="鱼尾"><path class="cls-1" d="M212.44,450.07l60.8,25.68-27.68,61.84S320.2,508.34,380.34,426Z" transform="translate(197.22 74.27)"/><path d="M236.63,448.51,363.14,431s-51.87,64.82-96.67,84.69L288.65,469Z" transform="translate(197.22 74.27)"/></g></svg>