<svg id="图层_1" data-name="图层 1" xmlns="http://www.w3.org/2000/svg" viewBox="0 0 1065.84 753.54"><defs><style>.cls-1{fill:#fff;}.cls-2{fill:none;}.cls-3{fill:#d9d9d9;}.cls-4{stroke:#fff;stroke-miterlimit:10;stroke-width:3px;}</style></defs><g id="背景填充"><polygon points="586.6 390.9 585.3 411.9 614.9 413.7 613.7 381.9 586.6 390.9"/><polygon points="626.8 377.5 626.3 410.7 704.8 395.4 714.9 372.2 626.8 377.5"/></g><path d="M-147.9-17.6v745c0,1.7,0,3.4.1,5.2a18.43,18.43,0,0,0,.5,2.5,23.36,23.36,0,0,0,2.6.4c1.6.1,3.1,0,4.7,0H910.2c2.3,0,4.6-.2,6.8-.4,0,.3.1.7,0,.8s-.5,0-.8,0h-1065V-17.6Z" transform="translate(148.8 17.6)"/><path class="cls-1" d="M425.5,371.9a46,46,0,0,0-3.7-29.2c-2.2-5-6.7-7.1-12.1-7.4a50.13,50.13,0,0,0-21.3,3.6,141.56,141.56,0,0,0-18.7,9.3c-7.7,4.6-15.2,9.6-22.6,14.8-22.3,15.8-47.3,24.4-74.3,28a247.15,247.15,0,0,1-64.3,0c-5.5-.7-10.9-1.2-16.4-1.7-1.2-.1-2.5-.2-3.7-.4-7.2-1.3-12.1-4.8-14.5-12.2a223.6,223.6,0,0,1-11.5-57.1c-.1-2.5-.4-4.9-.6-7.3-12.6-4.8-25.1-9.3-37.3-14.2a259.75,259.75,0,0,1-35.9-18.6A333,333,0,0,1,56,256.8a336.36,336.36,0,0,1-30.2-27C12.9,216.9,3.3,205.6,0,199.6c1.3-1,2.5-2.3,3.9-3.2C59.4,156.2,118.3,122.3,182.6,98a368.74,368.74,0,0,1,61.1-17.8,13.52,13.52,0,0,0,8.4-5.6A198.53,198.53,0,0,1,332,14.2,191.45,191.45,0,0,1,412.6.2c22.2.8,43.5,5.9,64.7,11.7a8,8,0,0,1,2.1,1.5c-1.3,1.3-2.4,2.6-3.7,3.7-3.6,3.1-7.3,6.1-10.8,9.2a57.24,57.24,0,0,0-13.3,16.1,47.67,47.67,0,0,0-3.8,9.7,17.83,17.83,0,0,0,4.1,16.8,41,41,0,0,0,15.6,11.4,221.55,221.55,0,0,1,58.9,38.2,214.91,214.91,0,0,1,62.4,96.4c.6,1.9,1.2,3.8,2,6.1,19.3,7.7,34.4,20.1,46.7,36a145.41,145.41,0,0,1,20.6,36.4c4.7,12.4,8.7,25,13,37.5a4.33,4.33,0,0,1-.1,1.6c-1.5.9-2.7-.3-3.8-.9-6.1-3.4-12.2-6.9-18.3-10.2a124.58,124.58,0,0,0-51.6-14.3c-1.5,0-3,.1-4.5.2-2,7.8-3.7,15.3-5.9,22.7-2.2,7.1-7.3,20.4-10,28.2m-113.4,2.7a75.34,75.34,0,0,0-3.3-19.9,83.94,83.94,0,0,0-21.5-33.8l-6.8-6.7a37,37,0,0,1,4.8.9,77.69,77.69,0,0,1,17.6,9.8,57.72,57.72,0,0,1,23.6,48.5m103.5-59c.3-1.5.6-3,1-4.4a102.32,102.32,0,0,1,17.5-.3,176.76,176.76,0,0,1,17.8,2.3,135.2,135.2,0,0,1,16.6,4.4c5.6,1.7,11,4.1,17.2,6.5-.4-1.7-.5-2.6-.8-3.5a158.9,158.9,0,0,0-12.4-27.2,120.84,120.84,0,0,0-19.9-26.2,88.24,88.24,0,0,0-33.8-21.6,30.9,30.9,0,0,1-3.2-1.4c-1.7-5.8-3.4-11.3-5.2-16.7C555.9,156.3,517.6,116.5,463.9,91a66.78,66.78,0,0,1-16.3-10.5c-12.2-11.2-14.9-24.4-8.1-39.4a67.62,67.62,0,0,1,11.7-17.3c1.4-1.6,2.9-3.3,5.1-5.9-34.1-8.7-67-9.6-99.7-.4-42.2,11.9-75.5,36.7-101.4,71.3-2.1.5-3.8,1-5.5,1.3A353.77,353.77,0,0,0,195.5,105c-63.3,22.7-121.1,55.6-176.1,93.8-1.2,1-2.4,2.1-3.5,3.2,42.6,49.1,93.8,84,156.6,100.4a4.42,4.42,0,0,1,.6,1.6c.1,1.7.2,3.5.2,5.2a199.11,199.11,0,0,0,10.8,61.7c.7,1.7,1.4,3.4,2.3,5.1,6.1,2.6,12.2,2.2,18.1,3a250.71,250.71,0,0,0,63.6.9c25.4-3.1,49.3-10.3,70.5-25.1,6.6-4.6,13.2-9,19.9-13.3a124.41,124.41,0,0,1,22.4-12.2,65.55,65.55,0,0,1,30-5.3,36.26,36.26,0,0,1,6.6,1A23.46,23.46,0,0,1,433,339.4a62,62,0,0,1,4.7,24.1m-197.4,43L404,511.1" transform="translate(148.8 17.6)"/><path id="需改" d="M438.1,373.7c-1.7-2.7-.2-7.4-.2-9.9a63.86,63.86,0,0,0-4.7-24.1,23.84,23.84,0,0,0-15.5-14.2,30.14,30.14,0,0,0-6.6-1,65.55,65.55,0,0,0-30,5.3,138.4,138.4,0,0,0-22.4,12.1c-6.7,4.4-13.4,8.7-19.9,13.4-21.2,14.8-45.1,22-70.5,25.1a260.34,260.34,0,0,1-63.6-.9c-5.9-.8-12-.4-18.1-3-.8-1.7-1.6-3.4-2.3-5.1a199.51,199.51,0,0,1-10.7-61.7,45.2,45.2,0,0,0-.2-5.2,4.42,4.42,0,0,0-.6-1.6C109.9,286.5,58.7,251.6,16.2,202.5a21.1,21.1,0,0,1,3.5-3.2c55-38.2,112.8-71.1,176.1-93.8A347.61,347.61,0,0,1,250,90.6c1.7-.3,3.4-.8,5.5-1.3C281.3,54.7,314.6,29.9,356.7,18c32.7-9.2,65.6-8.3,99.7.4-2.2,2.6-3.6,4.2-5.1,5.9a69.39,69.39,0,0,0-11.7,17.3c-6.8,15-4.1,28.2,8.1,39.4A66.78,66.78,0,0,0,464,91.5c53.7,25.4,92,65.3,112.3,121.6,2,5.4,3.5,10.9,5.2,16.7,1,.4,2,1,3.2,1.4a87.44,87.44,0,0,1,33.9,21.6A120.84,120.84,0,0,1,638.5,279a154.84,154.84,0,0,1,12.4,27.2c.3.9.4,1.7.8,3.5-6.2-2.4-11.6-4.7-17.2-6.5a135.2,135.2,0,0,0-16.6-4.4c-5.9-1.1-11.9-1.7-17.8-2.3a93.05,93.05,0,0,0-17.5.3,34.83,34.83,0,0,0-1,4.4c-1.7,17.3-17.5,55.1-24.8,70.9m-73.9-.8c-2.5.5-3.5.1-3.4-1.7a130.27,130.27,0,0,0-3.9-27.8,57.75,57.75,0,0,0-21.1-30.2,70.7,70.7,0,0,0-17.6-9.8,40.48,40.48,0,0,0-4.8-.9l6.8,6.7a83.94,83.94,0,0,1,21.5,33.8,74,74,0,0,1,3.3,19.9c.1,2.2-.2,9-.4,11.5M98,248.2c6-3.6,11.7-7.2,17.6-10.5,19.5-11.3,39.7-21.2,61.4-27.4,18.4-5.2,37-8.4,56.2-5.7,20,2.8,37.3,10.9,51.5,25.2a106.08,106.08,0,0,1,29.5,59.4,66.8,66.8,0,0,1,.2,13.4,4.82,4.82,0,0,1-3.9,5.2c-.9-1-1.9-2-2.8-3.1-1.7-2.4-3.4-5-5.1-7.4-.7-.9-1.1-2.3-3-1.6.4,16.1-5.4,30.2-14.2,43.3-3.2,4.7-7,9.1-10.5,13.7-.7.9-2,1.6-1.2,3a76.53,76.53,0,0,0,32.4-17.8,54.94,54.94,0,0,0,17.6-32.2,137.46,137.46,0,0,0,.7-15.7c0-1.7.1-3.3.2-5.5a18,18,0,0,1,4,1,9.19,9.19,0,0,1,3.1,2,9,9,0,0,1,2.5,3.6c.9,3.8,1.4,7.6,2.1,11.8,2.9-.6,4.8-2.7,6.9-4.4a309.41,309.41,0,0,1,55.4-34.2c39.4-18.8,80.9-27,124.5-23.4a216.24,216.24,0,0,1,71.5,18.4c1.5.7,2.8,2.1,5.2,1.2a34.15,34.15,0,0,0-3.3-3.3,101.18,101.18,0,0,0-22.4-14.8,132.34,132.34,0,0,0-40.9-11.7c-22.5-3-44.9-1.6-67.2,2.3-10.3,1.9-20.5,4.4-30.7,6.6-1.6.3-3.2.5-6.1,1a77.57,77.57,0,0,1,4.8-6.2,73.8,73.8,0,0,1,33.4-20.7l7.5-2.3c-5.8-15-15.5-26.6-26.6-37.1-10.1-9.6-16.2-14-20.8-15.1,3.8,10.7,2.3,21.3.6,31.9-.2,1.1-.3,2.5-2.1,2.5-8.3-23-14.4-33.4-23-38.8,1.7,7.9,3.3,15.4,2.1,23.2s-2.4,15.2-6.1,22.9c-2.4-7-4.3-13.4-6.8-19.6a65.13,65.13,0,0,0-11.4-17.5,90.79,90.79,0,0,0-15.5-14.2,17.1,17.1,0,0,0,.9,3c9,13.2,11.2,28.1,11.1,43.6,0,1.2.1,2.6-2.2,2.8-6.6-9.7-13.8-19.2-23-26.9a100,100,0,0,0-31.8-17.9,112.12,112.12,0,0,0-35.4-5.7c-15.1-.1-28.7,2.8-35.5,7.3a6.73,6.73,0,0,0,1.4,1.5c6.4,4.1,11.3,9.8,15.9,15.7a12.66,12.66,0,0,1,1.3,3.2,13.1,13.1,0,0,1-2.7.6c-13.5.9-27,1.3-40.4,2.7-12.4,1.3-24.8,3.1-37,5.5-18.2,3.6-36.5,5.6-54.9,7.8a58.05,58.05,0,0,1-5.9,0c.4-2.1,2-2,3-2.3a416.4,416.4,0,0,0,72.8-33.4c5.4-3.1,10.8-6.2,16.5-8.9,42.7-20.5,87.9-31.1,135.1-33.4a254.64,254.64,0,0,1,66.3,5.7c30.9,6.7,59.4,18.9,84.8,38,1.6,1.2,3.2,2.4,4.9,3.5.7.5,1.5,1.4,2.9.3a34.21,34.21,0,0,0-4.7-7.4c-15.8-21.5-36.5-36.7-60.9-47.2a136.82,136.82,0,0,0-30.7-9.6,8.31,8.31,0,0,1-7.1-5.7c-1.7-4.7-3.9-9.2-5.2-14-4.1-15.5-3.5-30.7,4.5-45a19.89,19.89,0,0,0,1.3-3.4,10.93,10.93,0,0,0-1.7-.5c-1.5,0-3,0-4.5.1A162.67,162.67,0,0,0,353,42.1c-30.4,13.5-55.9,33.3-78.4,57.3-2.9,3.1-5.2,7.2-8.7,9.2s-8.1,2.1-12.2,2.9a302.19,302.19,0,0,0-56.4,17.6c-50.4,20.6-97.6,47-143.6,75.9a18,18,0,0,0-2,1.9C56.9,219.6,76.3,236.9,98,248.2Zm136.4-18a14.54,14.54,0,0,0-7.2-2.8c-12.7-2.5-25.4-1.6-38,.9-25.3,4.9-48.6,15-70.9,27.6a37.12,37.12,0,0,0-3.2,2.3c3,3.1,6.8,3.6,10.3,4.5a82.66,82.66,0,0,0,11,2.3c3.5.4,7,2,10.9,1.1-1.3-3.5-2.5-6.4-3.5-9.5-.4-1.3-1-2.9.7-4,18.1,2.8,21.2,2.9,26.2,1-.6-2.6-3.8-4.1-3-7.6,3.8,1,7.5,2.1,11.4,2.9s7.8,1.9,11.8.2c1.1-4.4-1.7-9,.7-13.6a54.83,54.83,0,0,0,23.1,6.5c.7-4.3-1.5-8.4.9-12.4C221.7,228.6,227.8,230.9,234.4,230.2ZM204.7,355.3c-.1,2.1,1.3,2.4,2.3,2.9,5.2,2.5,11.1,2.9,16.8,3.3a14.58,14.58,0,0,0,9.9-2.6,171.73,171.73,0,0,0,32.1-28.1,108.89,108.89,0,0,0,17.1-25.4c.4-.8,1.7-1.9.2-3.2-1.5,1.7-2.9,3.5-4.3,5.2a42.88,42.88,0,0,1-17.6,12.4c-3.3,1.2-6.8,1.7-10.1,2.6-1.2.3-3.1-.1-3.5,1.9,2.9,3.4,8.1,2.3,11.3,5.6-4.1,4-9.1,4.4-14,5.2-3.7.6-7.4.8-11.2,1.2-.8.1-2.1-.1-2,1.6,2.7,3,7.3,1.7,11.3,4.6a72.69,72.69,0,0,1-7.2,2.1,37.25,37.25,0,0,1-6.7.9c-2.3.1-4.5,0-6.8,0s-4.3-.6-6.6.5c1.7,3.8,6,4,8,6.8-.2.3-.2.7-.3.8-6,3.2-12.5,1.2-18.7,1.7ZM231.2,155c-6.7,4.5-13.3,9-19.9,13.4-.1.1,0,.5-.2,1.2,2.7-.2,5.2-.3,7.9-.6s5-.5,7.5-.7,5.5-.2,8.2-.4,5.2.9,8.5,0a50.69,50.69,0,0,0-12-12.9Z" transform="translate(148.8 17.6)"/><path class="cls-1" d="M234.3,229.8c-6.6.8-12.7-1.5-18.7-.7-2.4,4.1-.1,8.1-.9,12.4a56.33,56.33,0,0,1-23.1-6.5c-2.4,4.6.3,9.1-.7,13.6-3.9,1.7-7.9.5-11.8-.2s-7.6-1.9-11.4-2.9c-.8,3.5,2.4,5,3,7.6-5,1.9-8.1,1.7-26.2-1-1.7,1-1.2,2.7-.7,4,1,3.1,2.2,6.1,3.5,9.5-3.9,1-7.4-.7-10.9-1.1a82.66,82.66,0,0,1-11-2.3c-3.5-.9-7.3-1.3-10.3-4.5a37.12,37.12,0,0,1,3.2-2.3c22.3-12.6,45.6-22.7,70.9-27.6,12.6-2.5,25.3-3.4,38-.9A14.72,14.72,0,0,1,234.3,229.8Z" transform="translate(148.8 17.6)"/><path class="cls-2" d="M204.6,355c6.2-.5,12.7,1.4,18.7-1.5.2,0,.2-.4.3-.8-1.9-2.8-6.2-2.9-8-6.8,2.3-1.1,4.5-.4,6.6-.5s4.5.1,6.8,0a38.5,38.5,0,0,0,6.7-.9c2.1-.5,4.2-1.2,7.2-2.1-4-2.9-8.6-1.6-11.3-4.6,0-1.7,1.2-1.5,2-1.6,3.7-.5,7.5-.6,11.2-1.2,4.9-.8,9.9-1.3,14-5.2-3.2-3.3-8.4-2.2-11.3-5.6.3-2,2.2-1.5,3.4-1.9,3.4-.9,6.8-1.5,10.1-2.6a42,42,0,0,0,17.6-12.4l4.3-5.2c1.6,1.3.2,2.3-.2,3.2a114.34,114.34,0,0,1-17.1,25.4,171.73,171.73,0,0,1-32.1,28.1,13.94,13.94,0,0,1-9.9,2.6c-5.7-.5-11.5-.9-16.8-3.3C205.8,357.4,204.5,357.1,204.6,355Z" transform="translate(148.8 17.6)"/><path class="cls-1" d="M231.1,154.6a52.53,52.53,0,0,1,12,12.9c-3.3.9-5.9-.2-8.5,0s-5.5.2-8.2.4-5,.5-7.5.7-5.2.4-7.9.6c.1-.7,0-1.1.2-1.2C217.8,163.6,224.4,159.2,231.1,154.6Z" transform="translate(148.8 17.6)"/><path id="_1-内部需改" data-name=" 1-内部需改" class="cls-3" d="M51.6,206.9s122.9-81,196.9-94.2c0,0,10.2-2,14.5-2.8s5.7-4.2,17.6-16.8c0,0,64.3-67,129.9-62.6,0,0-19,22,.6,64.6a10.65,10.65,0,0,0,8.2,3.8s72.3,17.5,94,64.4c0,0-129.3-108.3-318.4-1.4,0,0-47.2,23.7-67.6,30.9,0,0,20.7-.5,62-7.7s74.8-8.7,79-8.5c0,0-1.3-7.5-18.7-20.5,0,0,69.7-34.9,125.8,42.8,0,0,8.1-18.9-9.7-48.9,0,0,28.3,20.6,33.6,51.5a67,67,0,0,0,4.1-46.4s14,10.2,23.3,38.6c0,0,6.3-14.2,1.1-34.1,0,0,27.8,9.3,47.3,52.6a73,73,0,0,0-45.4,28.6S545,205.5,600,260.7c0,0-124.8-67.5-263.2,42.2a117.08,117.08,0,0,1-2.3-11.8s-1-5.6-9.8-6.5c0,0,9.5,53.6-50.7,71.2,0,0,24.2-26.5,26.7-60.6,0,0,8.7,12.5,10.5,12.9,0,0,3.8,1.4,3.5-16.2S271.5,133.3,98,248.7C98,248.8,58.5,227.2,51.6,206.9Z" transform="translate(148.8 17.6)"/><path id="鱼鳍需改" d="M295.6,102.4S327.7,50,393.7,42.7c0,0-13.6,15.2,5.4,55.1C399.1,97.9,364,84.6,295.6,102.4Z" transform="translate(148.8 17.6)"/><g id="SRM"><path id="SRM背景需改" class="cls-4" d="M90.6,469.2,78.9,526.4l5.2,9.4A18.41,18.41,0,0,1,78,560l-6.7,4.3L56.5,624.2,216,604l19.4-21.5a3.06,3.06,0,0,1,4.4.4l.1.1,6.1,16.9,244.2-34.2,20-25.5a4,4,0,0,1,5.6,0,2.18,2.18,0,0,1,.4.5L531,560.6l50.1-6.2,21.4-29.2a4.3,4.3,0,0,1,6-.9,3.91,3.91,0,0,1,1.4,1.7l10.7,23.5,59.7-7.5L708,429.3c2.3-9.2,5.2-18.9,1.3-40.2a28.79,28.79,0,0,0-1.7-5.2,37.87,37.87,0,0,0-39.2-21L492,385.3l-20.5,10a36.19,36.19,0,0,1-27.6,1.6l-11.4-4L293.9,410.5l-2.7,2.3a30.83,30.83,0,0,1-37.1,2.7h0L114.8,433.2,98.5,453A35.15,35.15,0,0,0,90.6,469.2Z" transform="translate(148.8 17.6)"/><g id="_1-SRM需改" data-name=" 1-SRM需改"><path class="cls-3" d="M118.4,453.8s6-4.6,9.2-5.3,130.7-17.4,130.7-17.4,1.2.2,1.3,1.1.6,3.2.6,3.2Z" transform="translate(148.8 17.6)"/><path class="cls-3" d="M106.1,472.6a81.57,81.57,0,0,1,4.1-8.4l148.7-19.6a61.81,61.81,0,0,1-2.7,8.3Z" transform="translate(148.8 17.6)"/><path class="cls-3" d="M101.6,490.4l2.5-10.4,148.2-19.6s-3.5,8.4-10.2,11.4Z" transform="translate(148.8 17.6)"/><path class="cls-3" d="M97.5,508l3-12.2,46.1-5.9s-2.1,5.2-1.7,7,0,2.5,3.8,4.2Z" transform="translate(148.8 17.6)"/><path class="cls-3" d="M96.3,511.7a32.37,32.37,0,0,0,.7,13.5l138.2-18.3S228,496.4,220.9,495Z" transform="translate(148.8 17.6)"/><path class="cls-3" d="M97.5,526.7l138.6-17.8s3.8,4.9,4,14.5l-10,40.9s-6.3,21.5-21.3,26.5L77.2,608.2s-7.3-6.5,7.9-33.2a77.63,77.63,0,0,1,8-7.2c2.4-1.6,90.8-12.4,90.8-12.4s6.6-3,6.8-13.5c0,0,1.7-4.7-11.5-4.2l-57.4,7.7C121.9,545.5,105.3,547,97.5,526.7Z" transform="translate(148.8 17.6)"/><path class="cls-3" d="M285.5,431.9s3.8-4.5,7.6-5.4S426.5,409,426.5,409a9.86,9.86,0,0,1,8.4,3.3Z" transform="translate(148.8 17.6)"/><path class="cls-3" d="M279.4,450a50.57,50.57,0,0,1,2.2-8.5l157.2-20.7s1.2,5.9.3,7.8Z" transform="translate(148.8 17.6)"/><path class="cls-3" d="M275,467.5s2.4-9.6,2.6-10.6l159.6-20.7s-1.3,8.4-1.9,10Z" transform="translate(148.8 17.6)"/><path class="cls-3" d="M273.9,473s-2.6,10-2.7,11.9l45.9-5.9s2.1-10.9,3.6-12.1Z" transform="translate(148.8 17.6)"/><path class="cls-3" d="M270,488.6l-3.3,14,160-20.9s2.6-13.5,3.2-14-46,5.9-46,5.9a21.82,21.82,0,0,1-14.6,13.6l-52.2,6.9s-3.6-.2-1-11.7Z" transform="translate(148.8 17.6)"/><path class="cls-3" d="M387,458.1s-.5,9.1-2.2,11.8L431,464s2.2-9.7,2.6-12.1Z" transform="translate(148.8 17.6)"/><path class="cls-3" d="M266.1,504.6,250,573.3s-2.4,10.1,4.9,11.5l29-3.8s8.4-.3,12.8-16.8,4.2-26,11.1-29.7l26.3-3.7s7.4,4.9,9.8,8S370,567.2,380,567.3c0,0,.8.9,7.7.1l31-4.2s.8-.3,1-2.7-32.8-33.5-33.5-36.8,18.7-.4,39.9-40Z" transform="translate(148.8 17.6)"/><path class="cls-3" d="M480.8,406.3l103.6-13.5s2.5-1.2-8.3-3.7l-87.6,11.6A14.91,14.91,0,0,0,480.8,406.3Z" transform="translate(148.8 17.6)"/><path class="cls-3" d="M596.4,391.1a33.46,33.46,0,0,1,10.7-5.7l.5-.1c5.1-1,63.1-8.6,63.1-8.6s7.7.1,11.9,3.1Z" transform="translate(148.8 17.6)"/><path class="cls-3" d="M694.6,395.1s-1.2-5.2-3.6-7.6L476.4,415.7s-2.4,5.5-2,8.3Z" transform="translate(148.8 17.6)"/><path class="cls-3" d="M472.2,431.4s-2,8.6-2.6,10.3l225.8-29.5a20.4,20.4,0,0,0,.9-10.4Z" transform="translate(148.8 17.6)"/><path class="cls-3" d="M468.5,447.1s-2.4,11.1-2.8,12.1l45.9-5.8a103.81,103.81,0,0,1,3.1-12.2Z" transform="translate(148.8 17.6)"/><path class="cls-3" d="M464.8,463.3s-3.2,11.4-3.5,13.7l46.2-5.9s2.9-13.2,3.2-14Z" transform="translate(148.8 17.6)"/><path class="cls-3" d="M460.8,479l-16.4,68.8s-2.1,9.8,4.8,10.8l29.1-3.5s9.5-.6,13.5-18.8a4.33,4.33,0,0,1,.1-.5c4-18.7,15.1-62.8,15.1-62.8Z" transform="translate(148.8 17.6)"/><path class="cls-3" d="M555.7,435.8a8.08,8.08,0,0,1,1.5,4.5c-.3,1.9-2.1,6.4-1.9,7.2l46.3-5.9s1.6-10.3,5.1-12.4Z" transform="translate(148.8 17.6)"/><path class="cls-3" d="M554.6,451.1l-3.4,14.3,46.1-6s2.4-11.9,3.5-13.9Z" transform="translate(148.8 17.6)"/><path class="cls-3" d="M550.6,467l-16.2,68.5s-2.4,11.4,5.5,11.7l29.1-3.8s9.3-2.3,12.2-16.1l16-66.3Z" transform="translate(148.8 17.6)"/><path class="cls-3" d="M645.7,424.1a7.89,7.89,0,0,1,1.2,3c.3,1.7-1.7,8.2-1.7,8.2l45.9-5.6s2.4-8.8,3.1-11.7Z" transform="translate(148.8 17.6)"/><path class="cls-3" d="M644.1,439.3s-3.1,13.2-3.1,14,0,.3,0,.3l45.7-6.1s2.6-8.7,3.5-14.1Z" transform="translate(148.8 17.6)"/><path class="cls-3" d="M640.6,455.3,624.9,521s-4.4,14.3,4.6,14.3l29.6-3.9s7.9-1.6,11.5-15.3c0,0,15.5-66.8,16-67Z" transform="translate(148.8 17.6)"/></g></g><g id="连接处填充"><path class="cls-1" d="M432.4,300.9s39.3,25.1,29.7,95.2l17.1-1.7C479.3,394.3,491.2,312.7,432.4,300.9Z" transform="translate(148.8 17.6)"/><path class="cls-1" d="M582.6,296.6s-14.3,56.4-30.6,80l18.8-1.2c-1.7,4.8,21-48.1,22-68.2Z" transform="translate(148.8 17.6)"/><path class="cls-1" d="M426.5,362.9s-1.7,25.4-6.3,31.4l16.9-2.2s2.3-31.8-1.4-44.5Z" transform="translate(148.8 17.6)"/></g><g id="鱼尾"><path class="cls-1" d="M268.6,599.8l81.7,34.5-37.2,83.1s100.3-39.3,181.1-149.9Z" transform="translate(148.8 17.6)"/><path d="M301.1,597.7l170-23.5S401.4,661.3,341.2,688L371,625.2Z" transform="translate(148.8 17.6)"/></g></svg>