<?xml version="1.0" encoding="utf-8"?>
<!-- Generator: Adobe Illustrator 26.0.0, SVG Export Plug-In . SVG Version: 6.00 Build 0)  -->
<svg version="1.1" id="图层_1" xmlns="http://www.w3.org/2000/svg" xmlns:xlink="http://www.w3.org/1999/xlink" x="0px" y="0px"
	 viewBox="0 0 711.2 717.4" style="enable-background:new 0 0 711.2 717.4;" xml:space="preserve">
<style type="text/css">
	.st0{fill:#FFFFFF;}
	.st1{fill:none;}
	.st2{fill:#D9D9D9;}
	.st3{stroke:#FFFFFF;stroke-width:3;stroke-miterlimit:10;}
</style>
<g id="背景填充">
	<polygon points="437.8,373.3 436.5,394.3 466.1,396.1 464.9,364.3 	"/>
	<polygon points="478,359.9 477.5,393.1 556,377.8 566.1,354.6 	"/>
</g>
<path class="st0" d="M425.5,371.9c2-9.9,0.7-20.1-3.7-29.2c-2.2-5-6.7-7.1-12.1-7.4c-7.3-0.4-14.5,0.9-21.3,3.6
	c-6.5,2.6-12.7,5.8-18.7,9.3c-7.7,4.6-15.2,9.6-22.6,14.8c-22.3,15.8-47.3,24.4-74.3,28c-21.3,2.8-43,2.8-64.3,0
	c-5.5-0.7-10.9-1.2-16.4-1.7c-1.2-0.1-2.5-0.2-3.7-0.4c-7.2-1.3-12.1-4.8-14.5-12.2c-6.3-18.5-10.2-37.7-11.5-57.1
	c-0.1-2.5-0.4-4.9-0.6-7.3c-12.6-4.8-25.1-9.3-37.3-14.2c-12.4-5.2-24.4-11.5-35.9-18.6C77.3,272.6,66.4,265,56,256.8
	c-10.6-8.4-20.7-17.4-30.2-27C12.9,216.9,3.3,205.6,0,199.6c1.3-1,2.5-2.3,3.9-3.2c55.5-40.2,114.4-74.1,178.7-98.4
	c19.8-7.7,40.2-13.6,61.1-17.8c3.4-0.7,6.4-2.7,8.4-5.6c21-26.6,48.5-47.4,79.9-60.4c25.5-10.4,53-15.2,80.6-14
	c22.2,0.8,43.5,5.9,64.7,11.7c0.8,0.4,1.5,0.9,2.1,1.5c-1.3,1.3-2.4,2.6-3.7,3.7c-3.6,3.1-7.3,6.1-10.8,9.2
	c-5.4,4.5-9.9,10-13.3,16.1c-1.6,3.1-2.9,6.3-3.8,9.7c-1.6,5.9-0.1,12.3,4.1,16.8c4.2,5,9.6,8.9,15.6,11.4
	c21.5,9.5,41.4,22.4,58.9,38.2c29.2,25.9,50.7,59.2,62.4,96.4c0.6,1.9,1.2,3.8,2,6.1c19.3,7.7,34.4,20.1,46.7,36
	c8.6,11.1,15.5,23.3,20.6,36.4c4.7,12.4,8.7,25,13,37.5c0.1,0.5,0,1.1-0.1,1.6c-1.5,0.9-2.7-0.3-3.8-0.9
	c-6.1-3.4-12.2-6.9-18.3-10.2c-16-8.5-33.6-13.3-51.6-14.3c-1.5,0-3,0.1-4.5,0.2c-2,7.8-3.7,15.3-5.9,22.7
	c-2.2,7.1-7.3,20.4-10,28.2 M463.5,360.9c-0.2-6.7-1.3-13.4-3.3-19.9c-4.3-12.8-11.7-24.4-21.5-33.8l-6.8-6.7
	c1.6,0.2,3.3,0.5,4.8,0.9c6.3,2.5,12.2,5.8,17.6,9.8c10.2,7.4,17.6,18,21.2,30c1.8,6,2.6,12.2,2.4,18.5 M581.4,300.7
	c0.3-1.5,0.6-3,1-4.4c5.8-0.6,11.7-0.7,17.5-0.3c6,0.5,11.9,1.2,17.8,2.3c5.6,1.1,11.2,2.6,16.6,4.4c5.6,1.7,11,4.1,17.2,6.5
	c-0.4-1.7-0.5-2.6-0.8-3.5c-3.3-9.4-7.4-18.6-12.4-27.2c-5.4-9.6-12.1-18.4-19.9-26.2c-9.5-9.7-21-17.1-33.8-21.6
	c-1.1-0.4-2.2-0.9-3.2-1.4c-1.7-5.8-3.4-11.3-5.2-16.7c-20.3-56.3-58.6-96.1-112.3-121.6c-5.9-2.7-11.4-6.2-16.3-10.5
	c-12.2-11.2-14.9-24.4-8.1-39.4c3-6.3,6.9-12.2,11.7-17.3c1.4-1.6,2.9-3.3,5.1-5.9c-34.1-8.7-67-9.6-99.7-0.4
	c-42.2,11.9-75.5,36.7-101.4,71.3c-2.1,0.5-3.8,1-5.5,1.3c-18.4,3.5-36.5,8.5-54.2,14.9c-63.3,22.7-121.1,55.6-176.1,93.8
	c-1.2,1-2.4,2.1-3.5,3.2c42.6,49.1,93.8,84,156.6,100.4c0.3,0.5,0.5,1,0.6,1.6c0.1,1.7,0.2,3.5,0.2,5.2c0.3,21,4,41.9,10.8,61.7
	c0.7,1.7,1.4,3.4,2.3,5.1c6.1,2.6,12.2,2.2,18.1,3c21.1,3,42.4,3.3,63.6,0.9c25.4-3.1,49.3-10.3,70.5-25.1c6.6-4.6,13.2-9,19.9-13.3
	c7-4.8,14.5-8.9,22.4-12.2c9.4-4.1,19.7-5.9,30-5.3c2.2,0.1,4.5,0.5,6.6,1c7.2,2.1,12.9,7.4,15.5,14.4c3.1,7.6,4.8,15.8,4.7,24.1
	 M240.3,406.5L404,511.1"/>
<path id="需改" d="M438.1,373.7c-1.7-2.7-0.2-7.4-0.2-9.9c0-8.3-1.6-16.5-4.7-24.1c-2.7-6.9-8.4-12.1-15.5-14.2
	c-2.2-0.6-4.4-0.9-6.6-1c-10.3-0.6-20.6,1.2-30,5.3c-7.8,3.3-15.3,7.4-22.4,12.1c-6.7,4.4-13.4,8.7-19.9,13.4
	c-21.2,14.8-45.1,22-70.5,25.1c-21.1,2.3-42.5,2-63.6-0.9c-5.9-0.8-12-0.4-18.1-3c-0.8-1.7-1.6-3.4-2.3-5.1
	c-6.8-19.9-10.4-40.7-10.7-61.7c0-1.7,0-3.5-0.2-5.2c-0.1-0.6-0.3-1.1-0.6-1.6c-62.9-16.4-114.1-51.3-156.6-100.4
	c1.1-1.2,2.2-2.3,3.5-3.2c55-38.2,112.8-71.1,176.1-93.8c17.6-6.4,35.7-11.4,54.2-14.9c1.7-0.3,3.4-0.8,5.5-1.3
	c25.8-34.6,59.1-59.4,101.2-71.3c32.7-9.2,65.6-8.3,99.7,0.4c-2.2,2.6-3.6,4.2-5.1,5.9c-4.8,5.2-8.7,11-11.7,17.3
	c-6.8,15-4.1,28.2,8.1,39.4c4.9,4.3,10.4,7.8,16.3,10.5c53.7,25.4,92,65.3,112.3,121.6c2,5.4,3.5,10.9,5.2,16.7c1,0.4,2,1,3.2,1.4
	c12.8,4.5,24.4,11.8,33.9,21.6c7.8,7.8,14.5,16.6,19.9,26.2c5,8.7,9.2,17.8,12.4,27.2c0.3,0.9,0.4,1.7,0.8,3.5
	c-6.2-2.4-11.6-4.7-17.2-6.5c-5.4-1.8-11-3.3-16.6-4.4c-5.9-1.1-11.9-1.7-17.8-2.3c-5.8-0.4-11.7-0.4-17.5,0.3
	c-0.4,1.5-0.8,2.9-1,4.4c-1.7,17.3-17.5,55.1-24.8,70.9 M482.9,371.3c-2.5,0.5-3.5,0.1-3.4-1.7c-0.3-9.4-1.6-18.7-3.9-27.8
	c-3.5-12.1-11-22.7-21.1-30.2c-5.4-4.1-11.3-7.4-17.6-9.8c-1.6-0.4-3.2-0.7-4.8-0.9l6.8,6.7c9.8,9.4,17.2,21,21.5,33.8
	c2,6.4,3.1,13.1,3.3,19.9c0.1,2.2-0.2,9-0.4,11.5 M98,248.2c6-3.6,11.7-7.2,17.6-10.5c19.5-11.3,39.7-21.2,61.4-27.4
	c18.4-5.2,37-8.4,56.2-5.7c20,2.8,37.3,10.9,51.5,25.2c15.9,16.1,26.3,37,29.5,59.4c0.5,4.5,0.6,9,0.2,13.4c0.2,2.5-1.4,4.7-3.9,5.2
	c-0.9-1-1.9-2-2.8-3.1c-1.7-2.4-3.4-5-5.1-7.4c-0.7-0.9-1.1-2.3-3-1.6c0.4,16.1-5.4,30.2-14.2,43.3c-3.2,4.7-7,9.1-10.5,13.7
	c-0.7,0.9-2,1.6-1.2,3c12.1-3.2,23.2-9.3,32.4-17.8c9.4-8.4,15.6-19.8,17.6-32.2c0.5-5.2,0.8-10.5,0.7-15.7c0-1.7,0.1-3.3,0.2-5.5
	c1.4,0.2,2.7,0.5,4,1c1.2,0.5,2.2,1.1,3.1,2c1.1,1,2,2.2,2.5,3.6c0.9,3.8,1.4,7.6,2.1,11.8c2.9-0.6,4.8-2.7,6.9-4.4
	c17.2-13.3,35.8-24.8,55.4-34.2c39.4-18.8,80.9-27,124.5-23.4c24.7,2,48.9,8.2,71.5,18.4c1.5,0.7,2.8,2.1,5.2,1.2
	c-1.2-1.3-2.2-2.4-3.3-3.3c-6.8-5.9-14.3-10.9-22.4-14.8c-12.9-6.1-26.7-10-40.9-11.7c-22.5-3-44.9-1.6-67.2,2.3
	c-10.3,1.9-20.5,4.4-30.7,6.6c-1.6,0.3-3.2,0.5-6.1,1c2.1-2.8,3.3-4.6,4.8-6.2c9-9.8,20.6-16.9,33.4-20.7l7.5-2.3
	c-5.8-15-15.5-26.6-26.6-37.1c-10.1-9.6-16.2-14-20.8-15.1c3.8,10.7,2.3,21.3,0.6,31.9c-0.2,1.1-0.3,2.5-2.1,2.5
	c-8.3-23-14.4-33.4-23-38.8c1.7,7.9,3.3,15.4,2.1,23.2s-2.4,15.2-6.1,22.9c-2.4-7-4.3-13.4-6.8-19.6c-2.8-6.4-6.7-12.3-11.4-17.5
	c-4.6-5.3-9.8-10.1-15.5-14.2c0.2,1,0.5,2,0.9,3c9,13.2,11.2,28.1,11.1,43.6c0,1.2,0.1,2.6-2.2,2.8c-6.6-9.7-13.8-19.2-23-26.9
	c-9.4-7.9-20.2-13.9-31.8-17.9c-11.4-3.8-23.4-5.7-35.4-5.7c-15.1-0.1-28.7,2.8-35.5,7.3c0.4,0.6,0.9,1.1,1.4,1.5
	c6.4,4.1,11.3,9.8,15.9,15.7c0.6,1,1,2.1,1.3,3.2c-0.9,0.3-1.8,0.5-2.7,0.6c-13.5,0.9-27,1.3-40.4,2.7c-12.4,1.3-24.8,3.1-37,5.5
	c-18.2,3.6-36.5,5.6-54.9,7.8c-2,0.1-3.9,0.1-5.9,0c0.4-2.1,2-2,3-2.3c25.3-8.8,49.6-19.9,72.8-33.4c5.4-3.1,10.8-6.2,16.5-8.9
	c42.7-20.5,87.9-31.1,135.1-33.4c22.3-1,44.5,0.9,66.3,5.7c30.9,6.7,59.4,18.9,84.8,38c1.6,1.2,3.2,2.4,4.9,3.5
	c0.7,0.5,1.5,1.4,2.9,0.3c-1.2-2.6-2.8-5.1-4.7-7.4c-15.8-21.5-36.5-36.7-60.9-47.2c-9.8-4.4-20.1-7.6-30.7-9.6
	c-3.3-0.3-6.1-2.6-7.1-5.7c-1.7-4.7-3.9-9.2-5.2-14c-4.1-15.5-3.5-30.7,4.5-45c0.5-1.1,1-2.2,1.3-3.4c-0.6-0.2-1.1-0.4-1.7-0.5
	c-1.5,0-3,0-4.5,0.1c-17.7,1.3-35.1,5.6-51.4,12.5c-30.4,13.5-55.9,33.3-78.4,57.3c-2.9,3.1-5.2,7.2-8.7,9.2s-8.1,2.1-12.2,2.9
	c-19.3,4-38.2,9.9-56.4,17.6c-50.4,20.6-97.6,47-143.6,75.9c-0.7,0.6-1.4,1.2-2,1.9C56.9,219.6,76.3,236.9,98,248.2z M234.4,230.2
	c-2.1-1.6-4.6-2.5-7.2-2.8c-12.7-2.5-25.4-1.6-38,0.9c-25.3,4.9-48.6,15-70.9,27.6c-1.1,0.7-2.2,1.5-3.2,2.3c3,3.1,6.8,3.6,10.3,4.5
	c3.6,1,7.3,1.8,11,2.3c3.5,0.4,7,2,10.9,1.1c-1.3-3.5-2.5-6.4-3.5-9.5c-0.4-1.3-1-2.9,0.7-4c18.1,2.8,21.2,2.9,26.2,1
	c-0.6-2.6-3.8-4.1-3-7.6c3.8,1,7.5,2.1,11.4,2.9c3.8,0.7,7.8,1.9,11.8,0.2c1.1-4.4-1.7-9,0.7-13.6c7.1,3.8,15,6.1,23.1,6.5
	c0.7-4.3-1.5-8.4,0.9-12.4C221.7,228.6,227.8,230.9,234.4,230.2z M204.7,355.3c-0.1,2.1,1.3,2.4,2.3,2.9c5.2,2.5,11.1,2.9,16.8,3.3
	c3.5,0.4,7-0.6,9.9-2.6c11.8-8,22.6-17.4,32.1-28.1c6.9-7.6,12.6-16.2,17.1-25.4c0.4-0.8,1.7-1.9,0.2-3.2c-1.5,1.7-2.9,3.5-4.3,5.2
	c-4.7,5.6-10.8,9.8-17.6,12.4c-3.3,1.2-6.8,1.7-10.1,2.6c-1.2,0.3-3.1-0.1-3.5,1.9c2.9,3.4,8.1,2.3,11.3,5.6c-4.1,4-9.1,4.4-14,5.2
	c-3.7,0.6-7.4,0.8-11.2,1.2c-0.8,0.1-2.1-0.1-2,1.6c2.7,3,7.3,1.7,11.3,4.6c-3,0.9-5,1.7-7.2,2.1c-2.2,0.5-4.4,0.8-6.7,0.9
	s-4.5,0-6.8,0s-4.3-0.6-6.6,0.5c1.7,3.8,6,4,8,6.8c-0.2,0.3-0.2,0.7-0.3,0.8C217.4,356.8,210.9,354.8,204.7,355.3L204.7,355.3z
	 M231.2,155c-6.7,4.5-13.3,9-19.9,13.4c-0.1,0.1,0,0.5-0.2,1.2c2.7-0.2,5.2-0.3,7.9-0.6c2.7-0.2,5-0.5,7.5-0.7s5.5-0.2,8.2-0.4
	s5.2,0.9,8.5,0C240,163,236,158.6,231.2,155L231.2,155z"/>
<path class="st0" d="M234.3,229.8c-6.6,0.8-12.7-1.5-18.7-0.7c-2.4,4.1-0.1,8.1-0.9,12.4c-8.1-0.5-16-2.7-23.1-6.5
	c-2.4,4.6,0.3,9.1-0.7,13.6c-3.9,1.7-7.9,0.5-11.8-0.2s-7.6-1.9-11.4-2.9c-0.8,3.5,2.4,5,3,7.6c-5,1.9-8.1,1.7-26.2-1
	c-1.7,1-1.2,2.7-0.7,4c1,3.1,2.2,6.1,3.5,9.5c-3.9,1-7.4-0.7-10.9-1.1c-3.7-0.5-7.4-1.3-11-2.3c-3.5-0.9-7.3-1.3-10.3-4.5
	c1-0.8,2.1-1.6,3.2-2.3c22.3-12.6,45.6-22.7,70.9-27.6c12.6-2.5,25.3-3.4,38-0.9C229.7,227.2,232.2,228.2,234.3,229.8z"/>
<path class="st1" d="M204.6,355c6.2-0.5,12.7,1.4,18.7-1.5c0.2,0,0.2-0.4,0.3-0.8c-1.9-2.8-6.2-2.9-8-6.8c2.3-1.1,4.5-0.4,6.6-0.5
	s4.5,0.1,6.8,0c2.2-0.1,4.5-0.4,6.7-0.9c2.1-0.5,4.2-1.2,7.2-2.1c-4-2.9-8.6-1.6-11.3-4.6c0-1.7,1.2-1.5,2-1.6
	c3.7-0.5,7.5-0.6,11.2-1.2c4.9-0.8,9.9-1.3,14-5.2c-3.2-3.3-8.4-2.2-11.3-5.6c0.3-2,2.2-1.5,3.4-1.9c3.4-0.9,6.8-1.5,10.1-2.6
	c6.8-2.5,12.9-6.8,17.6-12.4c1.4-1.7,2.9-3.5,4.3-5.2c1.6,1.3,0.2,2.3-0.2,3.2c-4.5,9.2-10.3,17.7-17.1,25.4
	c-9.5,10.7-20.3,20.1-32.1,28.1c-2.8,2.1-6.4,3-9.9,2.6c-5.7-0.5-11.5-0.9-16.8-3.3C205.8,357.4,204.5,357.1,204.6,355z"/>
<path class="st0" d="M231.1,154.6c4.7,3.6,8.8,8,12,12.9c-3.3,0.9-5.9-0.2-8.5,0s-5.5,0.2-8.2,0.4s-5,0.5-7.5,0.7s-5.2,0.4-7.9,0.6
	c0.1-0.7,0-1.1,0.2-1.2C217.8,163.6,224.4,159.2,231.1,154.6z"/>
<path id="_1-内部需改" class="st2" d="M51.6,206.9c0,0,122.9-81,196.9-94.2c0,0,10.2-2,14.5-2.8s5.7-4.2,17.6-16.8
	c0,0,64.3-67,129.9-62.6c0,0-19,22,0.6,64.6c2,2.4,5,3.8,8.2,3.8c0,0,72.3,17.5,94,64.4c0,0-129.3-108.3-318.4-1.4
	c0,0-47.2,23.7-67.6,30.9c0,0,20.7-0.5,62-7.7s74.8-8.7,79-8.5c0,0-1.3-7.5-18.7-20.5c0,0,69.7-34.9,125.8,42.8
	c0,0,8.1-18.9-9.7-48.9c0,0,28.3,20.6,33.6,51.5c6.9-14.5,8.3-30.9,4.1-46.4c0,0,14,10.2,23.3,38.6c0,0,6.3-14.2,1.1-34.1
	c0,0,27.8,9.3,47.3,52.6c-18.2,3.4-34.5,13.7-45.4,28.6c0,0,115.3-35.3,170.3,19.9c0,0-124.8-67.5-263.2,42.2
	c-1-3.9-1.7-7.8-2.3-11.8c0,0-1-5.6-9.8-6.5c0,0,9.5,53.6-50.7,71.2c0,0,24.2-26.5,26.7-60.6c0,0,8.7,12.5,10.5,12.9
	c0,0,3.8,1.4,3.5-16.2S271.5,133.3,98,248.7C98,248.8,58.5,227.2,51.6,206.9z"/>
<path id="鱼鳍需改" d="M295.6,102.4c0,0,32.1-52.4,98.1-59.7c0,0-13.6,15.2,5.4,55.1C399.1,97.9,364,84.6,295.6,102.4z"/>
<g id="SRM">
	<path id="SRM背景需改" class="st3" d="M90.6,469.2l-11.7,57.2l5.2,9.4c4.6,8.4,1.9,19-6.1,24.2l-6.7,4.3l-14.8,59.9L216,604
		l19.4-21.5c1.3-1.1,3.3-1,4.4,0.4l0.1,0.1l6.1,16.9l244.2-34.2l20-25.5c1.5-1.5,4-1.6,5.6,0c0.1,0.1,0.3,0.3,0.4,0.5l14.8,19.9
		l50.1-6.2l21.4-29.2c1.4-1.9,4.1-2.3,6-0.9c0.6,0.4,1.1,1,1.4,1.7l10.7,23.5l59.7-7.5L708,429.3c2.3-9.2,5.2-18.9,1.3-40.2
		c-0.4-1.8-1-3.6-1.7-5.2c-7.1-14.7-22.9-23.2-39.2-21L492,385.3l-20.5,10c-8.6,4.2-18.5,4.7-27.6,1.6l-11.4-4l-138.6,17.6l-2.7,2.3
		c-10.4,9.1-25.5,10.2-37.1,2.7l0,0l-139.3,17.7L98.5,453C94.4,457.7,91.8,463.3,90.6,469.2z"/>
	<g id="_1-SRM需改">
		<path class="st2" d="M118.4,453.8c0,0,6-4.6,9.2-5.3c3.1-0.7,130.7-17.4,130.7-17.4s1.2,0.2,1.3,1.1c0.1,1,0.6,3.2,0.6,3.2
			L118.4,453.8z"/>
		<path class="st2" d="M106.1,472.6c1.2-2.9,2.6-5.7,4.1-8.4l148.7-19.6c-0.7,2.8-1.6,5.6-2.7,8.3L106.1,472.6z"/>
		<path class="st2" d="M101.6,490.4l2.5-10.4l148.2-19.6c0,0-3.5,8.4-10.2,11.4L101.6,490.4z"/>
		<path class="st2" d="M97.5,508l3-12.2l46.1-5.9c0,0-2.1,5.2-1.7,7c0.4,1.7,0,2.5,3.8,4.2L97.5,508z"/>
		<path class="st2" d="M96.3,511.7c-0.7,4.5-0.5,9.1,0.7,13.5l138.2-18.3c0,0-7.2-10.5-14.3-11.9L96.3,511.7z"/>
		<path class="st2" d="M97.5,526.7l138.6-17.8c0,0,3.8,4.9,4,14.5l-10,40.9c0,0-6.3,21.5-21.3,26.5L77.2,608.2c0,0-7.3-6.5,7.9-33.2
			c2.5-2.6,5.2-5,8-7.2c2.4-1.6,90.8-12.4,90.8-12.4s6.6-3,6.8-13.5c0,0,1.7-4.7-11.5-4.2l-57.4,7.7
			C121.9,545.5,105.3,547,97.5,526.7z"/>
		<path class="st2" d="M285.5,431.9c0,0,3.8-4.5,7.6-5.4c3.7-0.8,133.4-17.5,133.4-17.5c3.2-0.3,6.3,0.9,8.4,3.3L285.5,431.9z"/>
		<path class="st2" d="M279.4,450c0.5-2.9,1.2-5.7,2.2-8.5l157.2-20.7c0,0,1.2,5.9,0.3,7.8L279.4,450z"/>
		<path class="st2" d="M275,467.5c0,0,2.4-9.6,2.6-10.6l159.6-20.7c0,0-1.3,8.4-1.9,10L275,467.5z"/>
		<path class="st2" d="M273.9,473c0,0-2.6,10-2.7,11.9l45.9-5.9c0,0,2.1-10.9,3.6-12.1L273.9,473z"/>
		<path class="st2" d="M270,488.6l-3.3,14l160-20.9c0,0,2.6-13.5,3.2-14s-46,5.9-46,5.9c-2.4,6.6-7.8,11.7-14.6,13.6l-52.2,6.9
			c0,0-3.6-0.2-1-11.7L270,488.6z"/>
		<path class="st2" d="M387,458.1c0,0-0.5,9.1-2.2,11.8L431,464c0,0,2.2-9.7,2.6-12.1L387,458.1z"/>
		<path class="st2" d="M266.1,504.6L250,573.3c0,0-2.4,10.1,4.9,11.5l29-3.8c0,0,8.4-0.3,12.8-16.8c4.4-16.4,4.2-26,11.1-29.7
			l26.3-3.7c0,0,7.4,4.9,9.8,8s26.1,28.4,36.1,28.5c0,0,0.8,0.9,7.7,0.1l31-4.2c0,0,0.8-0.3,1-2.7c0.2-2.3-32.8-33.5-33.5-36.8
			s18.7-0.4,39.9-40L266.1,504.6z"/>
		<path class="st2" d="M480.8,406.3l103.6-13.5c0,0,2.5-1.2-8.3-3.7l-87.6,11.6C485.4,401.7,482.7,403.6,480.8,406.3z"/>
		<path class="st2" d="M596.4,391.1c3.2-2.5,6.8-4.5,10.7-5.7l0.5-0.1c5.1-1,63.1-8.6,63.1-8.6s7.7,0.1,11.9,3.1L596.4,391.1z"/>
		<path class="st2" d="M694.6,395.1c0,0-1.2-5.2-3.6-7.6l-214.6,28.2c0,0-2.4,5.5-2,8.3L694.6,395.1z"/>
		<path class="st2" d="M472.2,431.4c0,0-2,8.6-2.6,10.3l225.8-29.5c1.2-3.3,1.5-6.9,0.9-10.4L472.2,431.4z"/>
		<path class="st2" d="M468.5,447.1c0,0-2.4,11.1-2.8,12.1l45.9-5.8c0.8-4.1,1.8-8.2,3.1-12.2L468.5,447.1z"/>
		<path class="st2" d="M464.8,463.3c0,0-3.2,11.4-3.5,13.7l46.2-5.9c0,0,2.9-13.2,3.2-14L464.8,463.3z"/>
		<path class="st2" d="M460.8,479l-16.4,68.8c0,0-2.1,9.8,4.8,10.8l29.1-3.5c0,0,9.5-0.6,13.5-18.8c0-0.2,0.1-0.4,0.1-0.5
			c4-18.7,15.1-62.8,15.1-62.8L460.8,479z"/>
		<path class="st2" d="M555.7,435.8c0.9,1.3,1.5,2.9,1.5,4.5c-0.3,1.9-2.1,6.4-1.9,7.2l46.3-5.9c0,0,1.6-10.3,5.1-12.4L555.7,435.8z
			"/>
		<path class="st2" d="M554.6,451.1l-3.4,14.3l46.1-6c0,0,2.4-11.9,3.5-13.9L554.6,451.1z"/>
		<path class="st2" d="M550.6,467l-16.2,68.5c0,0-2.4,11.4,5.5,11.7l29.1-3.8c0,0,9.3-2.3,12.2-16.1l16-66.3L550.6,467z"/>
		<path class="st2" d="M645.7,424.1c0.6,0.9,1,1.9,1.2,3c0.3,1.7-1.7,8.2-1.7,8.2l45.9-5.6c0,0,2.4-8.8,3.1-11.7L645.7,424.1z"/>
		<path class="st2" d="M644.1,439.3c0,0-3.1,13.2-3.1,14c-0.1,0.8,0,0.3,0,0.3l45.7-6.1c0,0,2.6-8.7,3.5-14.1L644.1,439.3z"/>
		<path class="st2" d="M640.6,455.3L624.9,521c0,0-4.4,14.3,4.6,14.3l29.6-3.9c0,0,7.9-1.6,11.5-15.3c0,0,15.5-66.8,16-67
			L640.6,455.3z"/>
	</g>
</g>
<g id="连接处填充">
	<path class="st0" d="M432.4,300.9c0,0,39.3,25.1,29.7,95.2l17.1-1.7C479.3,394.3,491.2,312.7,432.4,300.9z"/>
	<path class="st0" d="M582.6,296.6c0,0-14.3,56.4-30.6,80l18.8-1.2c-1.7,4.8,21-48.1,22-68.2L582.6,296.6z"/>
	<path class="st0" d="M426.5,362.9c0,0-1.7,25.4-6.3,31.4l16.9-2.2c0,0,2.3-31.8-1.4-44.5L426.5,362.9z"/>
</g>
<g id="鱼尾">
	<path class="st0" d="M268.6,599.8l81.7,34.5l-37.2,83.1c0,0,100.3-39.3,181.1-149.9L268.6,599.8z"/>
	<path d="M301.1,597.7l170-23.5c0,0-69.7,87.1-129.9,113.8l29.8-62.8L301.1,597.7z"/>
</g>
</svg>
